G04 #@! TF.FileFunction,Soldermask,Bot*
%FSLAX46Y46*%
G04 Gerber Fmt 4.6, Leading zero omitted, Abs format (unit mm)*
G04 Created by KiCad (PCBNEW 4.0.3-stable) date 11/15/16 10:24:21*
%MOMM*%
%LPD*%
G01*
G04 APERTURE LIST*
%ADD10C,0.100000*%
%ADD11C,0.150000*%
%ADD12C,0.300000*%
%ADD13C,0.400000*%
G04 APERTURE END LIST*
D10*
D11*
X177002200Y-166007200D02*
X177002200Y-198007200D01*
X285002200Y-198007200D01*
X285002200Y-166007200D01*
X177002200Y-166007200D01*
D10*
D11*
X10000000Y-10000000D02*
X10000000Y-200007200D01*
X287002200Y-200007200D01*
X287002200Y-10000000D01*
X10000000Y-10000000D01*
D10*
D11*
X12000000Y-12000000D02*
X12000000Y-198007200D01*
X285002200Y-198007200D01*
X285002200Y-12000000D01*
X12000000Y-12000000D01*
D10*
D11*
X60000000Y-12000000D02*
X60000000Y-10000000D01*
D10*
D11*
X110000000Y-12000000D02*
X110000000Y-10000000D01*
D10*
D11*
X160000000Y-12000000D02*
X160000000Y-10000000D01*
D10*
D11*
X210000000Y-12000000D02*
X210000000Y-10000000D01*
D10*
D11*
X260000000Y-12000000D02*
X260000000Y-10000000D01*
D10*
D11*
X35990476Y-11588095D02*
X35247619Y-11588095D01*
X35619048Y-11588095D02*
X35619048Y-10288095D01*
X35495238Y-10473810D01*
X35371429Y-10597619D01*
X35247619Y-10659524D01*
D10*
D11*
X85247619Y-10411905D02*
X85309524Y-10350000D01*
X85433333Y-10288095D01*
X85742857Y-10288095D01*
X85866667Y-10350000D01*
X85928571Y-10411905D01*
X85990476Y-10535714D01*
X85990476Y-10659524D01*
X85928571Y-10845238D01*
X85185714Y-11588095D01*
X85990476Y-11588095D01*
D10*
D11*
X135185714Y-10288095D02*
X135990476Y-10288095D01*
X135557143Y-10783333D01*
X135742857Y-10783333D01*
X135866667Y-10845238D01*
X135928571Y-10907143D01*
X135990476Y-11030952D01*
X135990476Y-11340476D01*
X135928571Y-11464286D01*
X135866667Y-11526190D01*
X135742857Y-11588095D01*
X135371429Y-11588095D01*
X135247619Y-11526190D01*
X135185714Y-11464286D01*
D10*
D11*
X185866667Y-10721429D02*
X185866667Y-11588095D01*
X185557143Y-10226190D02*
X185247619Y-11154762D01*
X186052381Y-11154762D01*
D10*
D11*
X235928571Y-10288095D02*
X235309524Y-10288095D01*
X235247619Y-10907143D01*
X235309524Y-10845238D01*
X235433333Y-10783333D01*
X235742857Y-10783333D01*
X235866667Y-10845238D01*
X235928571Y-10907143D01*
X235990476Y-11030952D01*
X235990476Y-11340476D01*
X235928571Y-11464286D01*
X235866667Y-11526190D01*
X235742857Y-11588095D01*
X235433333Y-11588095D01*
X235309524Y-11526190D01*
X235247619Y-11464286D01*
D10*
D11*
X285866667Y-10288095D02*
X285619048Y-10288095D01*
X285495238Y-10350000D01*
X285433333Y-10411905D01*
X285309524Y-10597619D01*
X285247619Y-10845238D01*
X285247619Y-11340476D01*
X285309524Y-11464286D01*
X285371429Y-11526190D01*
X285495238Y-11588095D01*
X285742857Y-11588095D01*
X285866667Y-11526190D01*
X285928571Y-11464286D01*
X285990476Y-11340476D01*
X285990476Y-11030952D01*
X285928571Y-10907143D01*
X285866667Y-10845238D01*
X285742857Y-10783333D01*
X285495238Y-10783333D01*
X285371429Y-10845238D01*
X285309524Y-10907143D01*
X285247619Y-11030952D01*
D10*
D11*
X60000000Y-198007200D02*
X60000000Y-200007200D01*
D10*
D11*
X110000000Y-198007200D02*
X110000000Y-200007200D01*
D10*
D11*
X160000000Y-198007200D02*
X160000000Y-200007200D01*
D10*
D11*
X210000000Y-198007200D02*
X210000000Y-200007200D01*
D10*
D11*
X260000000Y-198007200D02*
X260000000Y-200007200D01*
D10*
D11*
X35990476Y-199595295D02*
X35247619Y-199595295D01*
X35619048Y-199595295D02*
X35619048Y-198295295D01*
X35495238Y-198481010D01*
X35371429Y-198604819D01*
X35247619Y-198666724D01*
D10*
D11*
X85247619Y-198419105D02*
X85309524Y-198357200D01*
X85433333Y-198295295D01*
X85742857Y-198295295D01*
X85866667Y-198357200D01*
X85928571Y-198419105D01*
X85990476Y-198542914D01*
X85990476Y-198666724D01*
X85928571Y-198852438D01*
X85185714Y-199595295D01*
X85990476Y-199595295D01*
D10*
D11*
X135185714Y-198295295D02*
X135990476Y-198295295D01*
X135557143Y-198790533D01*
X135742857Y-198790533D01*
X135866667Y-198852438D01*
X135928571Y-198914343D01*
X135990476Y-199038152D01*
X135990476Y-199347676D01*
X135928571Y-199471486D01*
X135866667Y-199533390D01*
X135742857Y-199595295D01*
X135371429Y-199595295D01*
X135247619Y-199533390D01*
X135185714Y-199471486D01*
D10*
D11*
X185866667Y-198728629D02*
X185866667Y-199595295D01*
X185557143Y-198233390D02*
X185247619Y-199161962D01*
X186052381Y-199161962D01*
D10*
D11*
X235928571Y-198295295D02*
X235309524Y-198295295D01*
X235247619Y-198914343D01*
X235309524Y-198852438D01*
X235433333Y-198790533D01*
X235742857Y-198790533D01*
X235866667Y-198852438D01*
X235928571Y-198914343D01*
X235990476Y-199038152D01*
X235990476Y-199347676D01*
X235928571Y-199471486D01*
X235866667Y-199533390D01*
X235742857Y-199595295D01*
X235433333Y-199595295D01*
X235309524Y-199533390D01*
X235247619Y-199471486D01*
D10*
D11*
X285866667Y-198295295D02*
X285619048Y-198295295D01*
X285495238Y-198357200D01*
X285433333Y-198419105D01*
X285309524Y-198604819D01*
X285247619Y-198852438D01*
X285247619Y-199347676D01*
X285309524Y-199471486D01*
X285371429Y-199533390D01*
X285495238Y-199595295D01*
X285742857Y-199595295D01*
X285866667Y-199533390D01*
X285928571Y-199471486D01*
X285990476Y-199347676D01*
X285990476Y-199038152D01*
X285928571Y-198914343D01*
X285866667Y-198852438D01*
X285742857Y-198790533D01*
X285495238Y-198790533D01*
X285371429Y-198852438D01*
X285309524Y-198914343D01*
X285247619Y-199038152D01*
D10*
D11*
X10000000Y-60000000D02*
X12000000Y-60000000D01*
D10*
D11*
X10000000Y-110000000D02*
X12000000Y-110000000D01*
D10*
D11*
X10000000Y-160000000D02*
X12000000Y-160000000D01*
D10*
D11*
X10690476Y-35216667D02*
X11309524Y-35216667D01*
X10566667Y-35588095D02*
X11000000Y-34288095D01*
X11433333Y-35588095D01*
D10*
D11*
X11092857Y-84907143D02*
X11278571Y-84969048D01*
X11340476Y-85030952D01*
X11402381Y-85154762D01*
X11402381Y-85340476D01*
X11340476Y-85464286D01*
X11278571Y-85526190D01*
X11154762Y-85588095D01*
X10659524Y-85588095D01*
X10659524Y-84288095D01*
X11092857Y-84288095D01*
X11216667Y-84350000D01*
X11278571Y-84411905D01*
X11340476Y-84535714D01*
X11340476Y-84659524D01*
X11278571Y-84783333D01*
X11216667Y-84845238D01*
X11092857Y-84907143D01*
X10659524Y-84907143D01*
D10*
D11*
X11402381Y-135464286D02*
X11340476Y-135526190D01*
X11154762Y-135588095D01*
X11030952Y-135588095D01*
X10845238Y-135526190D01*
X10721429Y-135402381D01*
X10659524Y-135278571D01*
X10597619Y-135030952D01*
X10597619Y-134845238D01*
X10659524Y-134597619D01*
X10721429Y-134473810D01*
X10845238Y-134350000D01*
X11030952Y-134288095D01*
X11154762Y-134288095D01*
X11340476Y-134350000D01*
X11402381Y-134411905D01*
D10*
D11*
X10659524Y-185588095D02*
X10659524Y-184288095D01*
X10969048Y-184288095D01*
X11154762Y-184350000D01*
X11278571Y-184473810D01*
X11340476Y-184597619D01*
X11402381Y-184845238D01*
X11402381Y-185030952D01*
X11340476Y-185278571D01*
X11278571Y-185402381D01*
X11154762Y-185526190D01*
X10969048Y-185588095D01*
X10659524Y-185588095D01*
D10*
D11*
X287002200Y-60000000D02*
X285002200Y-60000000D01*
D10*
D11*
X287002200Y-110000000D02*
X285002200Y-110000000D01*
D10*
D11*
X287002200Y-160000000D02*
X285002200Y-160000000D01*
D10*
D11*
X285692676Y-35216667D02*
X286311724Y-35216667D01*
X285568867Y-35588095D02*
X286002200Y-34288095D01*
X286435533Y-35588095D01*
D10*
D11*
X286095057Y-84907143D02*
X286280771Y-84969048D01*
X286342676Y-85030952D01*
X286404581Y-85154762D01*
X286404581Y-85340476D01*
X286342676Y-85464286D01*
X286280771Y-85526190D01*
X286156962Y-85588095D01*
X285661724Y-85588095D01*
X285661724Y-84288095D01*
X286095057Y-84288095D01*
X286218867Y-84350000D01*
X286280771Y-84411905D01*
X286342676Y-84535714D01*
X286342676Y-84659524D01*
X286280771Y-84783333D01*
X286218867Y-84845238D01*
X286095057Y-84907143D01*
X285661724Y-84907143D01*
D10*
D11*
X286404581Y-135464286D02*
X286342676Y-135526190D01*
X286156962Y-135588095D01*
X286033152Y-135588095D01*
X285847438Y-135526190D01*
X285723629Y-135402381D01*
X285661724Y-135278571D01*
X285599819Y-135030952D01*
X285599819Y-134845238D01*
X285661724Y-134597619D01*
X285723629Y-134473810D01*
X285847438Y-134350000D01*
X286033152Y-134288095D01*
X286156962Y-134288095D01*
X286342676Y-134350000D01*
X286404581Y-134411905D01*
D10*
D11*
X285661724Y-185588095D02*
X285661724Y-184288095D01*
X285971248Y-184288095D01*
X286156962Y-184350000D01*
X286280771Y-184473810D01*
X286342676Y-184597619D01*
X286404581Y-184845238D01*
X286404581Y-185030952D01*
X286342676Y-185278571D01*
X286280771Y-185402381D01*
X286156962Y-185526190D01*
X285971248Y-185588095D01*
X285661724Y-185588095D01*
D10*
D11*
X200359343Y-193785771D02*
X200359343Y-192285771D01*
X200716486Y-192285771D01*
X200930771Y-192357200D01*
X201073629Y-192500057D01*
X201145057Y-192642914D01*
X201216486Y-192928629D01*
X201216486Y-193142914D01*
X201145057Y-193428629D01*
X201073629Y-193571486D01*
X200930771Y-193714343D01*
X200716486Y-193785771D01*
X200359343Y-193785771D01*
X202502200Y-193785771D02*
X202502200Y-193000057D01*
X202430771Y-192857200D01*
X202287914Y-192785771D01*
X202002200Y-192785771D01*
X201859343Y-192857200D01*
X202502200Y-193714343D02*
X202359343Y-193785771D01*
X202002200Y-193785771D01*
X201859343Y-193714343D01*
X201787914Y-193571486D01*
X201787914Y-193428629D01*
X201859343Y-193285771D01*
X202002200Y-193214343D01*
X202359343Y-193214343D01*
X202502200Y-193142914D01*
X203002200Y-192785771D02*
X203573629Y-192785771D01*
X203216486Y-192285771D02*
X203216486Y-193571486D01*
X203287914Y-193714343D01*
X203430772Y-193785771D01*
X203573629Y-193785771D01*
X204645057Y-193714343D02*
X204502200Y-193785771D01*
X204216486Y-193785771D01*
X204073629Y-193714343D01*
X204002200Y-193571486D01*
X204002200Y-193000057D01*
X204073629Y-192857200D01*
X204216486Y-192785771D01*
X204502200Y-192785771D01*
X204645057Y-192857200D01*
X204716486Y-193000057D01*
X204716486Y-193142914D01*
X204002200Y-193285771D01*
X205359343Y-193642914D02*
X205430771Y-193714343D01*
X205359343Y-193785771D01*
X205287914Y-193714343D01*
X205359343Y-193642914D01*
X205359343Y-193785771D01*
X205359343Y-192857200D02*
X205430771Y-192928629D01*
X205359343Y-193000057D01*
X205287914Y-192928629D01*
X205359343Y-192857200D01*
X205359343Y-193000057D01*
D10*
D11*
X177002200Y-194507200D02*
X285002200Y-194507200D01*
D10*
D11*
X178359343Y-196585771D02*
X178359343Y-195085771D01*
X179216486Y-196585771D02*
X178573629Y-195728629D01*
X179216486Y-195085771D02*
X178359343Y-195942914D01*
X179859343Y-196585771D02*
X179859343Y-195585771D01*
X179859343Y-195085771D02*
X179787914Y-195157200D01*
X179859343Y-195228629D01*
X179930771Y-195157200D01*
X179859343Y-195085771D01*
X179859343Y-195228629D01*
X181430772Y-196442914D02*
X181359343Y-196514343D01*
X181145057Y-196585771D01*
X181002200Y-196585771D01*
X180787915Y-196514343D01*
X180645057Y-196371486D01*
X180573629Y-196228629D01*
X180502200Y-195942914D01*
X180502200Y-195728629D01*
X180573629Y-195442914D01*
X180645057Y-195300057D01*
X180787915Y-195157200D01*
X181002200Y-195085771D01*
X181145057Y-195085771D01*
X181359343Y-195157200D01*
X181430772Y-195228629D01*
X182716486Y-196585771D02*
X182716486Y-195800057D01*
X182645057Y-195657200D01*
X182502200Y-195585771D01*
X182216486Y-195585771D01*
X182073629Y-195657200D01*
X182716486Y-196514343D02*
X182573629Y-196585771D01*
X182216486Y-196585771D01*
X182073629Y-196514343D01*
X182002200Y-196371486D01*
X182002200Y-196228629D01*
X182073629Y-196085771D01*
X182216486Y-196014343D01*
X182573629Y-196014343D01*
X182716486Y-195942914D01*
X184073629Y-196585771D02*
X184073629Y-195085771D01*
X184073629Y-196514343D02*
X183930772Y-196585771D01*
X183645058Y-196585771D01*
X183502200Y-196514343D01*
X183430772Y-196442914D01*
X183359343Y-196300057D01*
X183359343Y-195871486D01*
X183430772Y-195728629D01*
X183502200Y-195657200D01*
X183645058Y-195585771D01*
X183930772Y-195585771D01*
X184073629Y-195657200D01*
X185930772Y-195800057D02*
X186430772Y-195800057D01*
X186645058Y-196585771D02*
X185930772Y-196585771D01*
X185930772Y-195085771D01*
X186645058Y-195085771D01*
X187287915Y-196442914D02*
X187359343Y-196514343D01*
X187287915Y-196585771D01*
X187216486Y-196514343D01*
X187287915Y-196442914D01*
X187287915Y-196585771D01*
X188002201Y-196585771D02*
X188002201Y-195085771D01*
X188359344Y-195085771D01*
X188573629Y-195157200D01*
X188716487Y-195300057D01*
X188787915Y-195442914D01*
X188859344Y-195728629D01*
X188859344Y-195942914D01*
X188787915Y-196228629D01*
X188716487Y-196371486D01*
X188573629Y-196514343D01*
X188359344Y-196585771D01*
X188002201Y-196585771D01*
X189502201Y-196442914D02*
X189573629Y-196514343D01*
X189502201Y-196585771D01*
X189430772Y-196514343D01*
X189502201Y-196442914D01*
X189502201Y-196585771D01*
X190145058Y-196157200D02*
X190859344Y-196157200D01*
X190002201Y-196585771D02*
X190502201Y-195085771D01*
X191002201Y-196585771D01*
X191502201Y-196442914D02*
X191573629Y-196514343D01*
X191502201Y-196585771D01*
X191430772Y-196514343D01*
X191502201Y-196442914D01*
X191502201Y-196585771D01*
X194502201Y-196585771D02*
X194502201Y-195085771D01*
X194645058Y-196014343D02*
X195073629Y-196585771D01*
X195073629Y-195585771D02*
X194502201Y-196157200D01*
X195716487Y-196585771D02*
X195716487Y-195585771D01*
X195716487Y-195085771D02*
X195645058Y-195157200D01*
X195716487Y-195228629D01*
X195787915Y-195157200D01*
X195716487Y-195085771D01*
X195716487Y-195228629D01*
X197073630Y-196514343D02*
X196930773Y-196585771D01*
X196645059Y-196585771D01*
X196502201Y-196514343D01*
X196430773Y-196442914D01*
X196359344Y-196300057D01*
X196359344Y-195871486D01*
X196430773Y-195728629D01*
X196502201Y-195657200D01*
X196645059Y-195585771D01*
X196930773Y-195585771D01*
X197073630Y-195657200D01*
X198359344Y-196585771D02*
X198359344Y-195800057D01*
X198287915Y-195657200D01*
X198145058Y-195585771D01*
X197859344Y-195585771D01*
X197716487Y-195657200D01*
X198359344Y-196514343D02*
X198216487Y-196585771D01*
X197859344Y-196585771D01*
X197716487Y-196514343D01*
X197645058Y-196371486D01*
X197645058Y-196228629D01*
X197716487Y-196085771D01*
X197859344Y-196014343D01*
X198216487Y-196014343D01*
X198359344Y-195942914D01*
X199716487Y-196585771D02*
X199716487Y-195085771D01*
X199716487Y-196514343D02*
X199573630Y-196585771D01*
X199287916Y-196585771D01*
X199145058Y-196514343D01*
X199073630Y-196442914D01*
X199002201Y-196300057D01*
X199002201Y-195871486D01*
X199073630Y-195728629D01*
X199145058Y-195657200D01*
X199287916Y-195585771D01*
X199573630Y-195585771D01*
X199716487Y-195657200D01*
X202216487Y-195585771D02*
X202216487Y-196585771D01*
X201859344Y-195014343D02*
X201502201Y-196085771D01*
X202430773Y-196085771D01*
X203002201Y-196442914D02*
X203073629Y-196514343D01*
X203002201Y-196585771D01*
X202930772Y-196514343D01*
X203002201Y-196442914D01*
X203002201Y-196585771D01*
X204002201Y-195085771D02*
X204145058Y-195085771D01*
X204287915Y-195157200D01*
X204359344Y-195228629D01*
X204430773Y-195371486D01*
X204502201Y-195657200D01*
X204502201Y-196014343D01*
X204430773Y-196300057D01*
X204359344Y-196442914D01*
X204287915Y-196514343D01*
X204145058Y-196585771D01*
X204002201Y-196585771D01*
X203859344Y-196514343D01*
X203787915Y-196442914D01*
X203716487Y-196300057D01*
X203645058Y-196014343D01*
X203645058Y-195657200D01*
X203716487Y-195371486D01*
X203787915Y-195228629D01*
X203859344Y-195157200D01*
X204002201Y-195085771D01*
X205145058Y-196442914D02*
X205216486Y-196514343D01*
X205145058Y-196585771D01*
X205073629Y-196514343D01*
X205145058Y-196442914D01*
X205145058Y-196585771D01*
X205716487Y-195085771D02*
X206645058Y-195085771D01*
X206145058Y-195657200D01*
X206359344Y-195657200D01*
X206502201Y-195728629D01*
X206573630Y-195800057D01*
X206645058Y-195942914D01*
X206645058Y-196300057D01*
X206573630Y-196442914D01*
X206502201Y-196514343D01*
X206359344Y-196585771D01*
X205930772Y-196585771D01*
X205787915Y-196514343D01*
X205716487Y-196442914D01*
X207287915Y-196014343D02*
X208430772Y-196014343D01*
X209073629Y-196514343D02*
X209216486Y-196585771D01*
X209502201Y-196585771D01*
X209645058Y-196514343D01*
X209716486Y-196371486D01*
X209716486Y-196300057D01*
X209645058Y-196157200D01*
X209502201Y-196085771D01*
X209287915Y-196085771D01*
X209145058Y-196014343D01*
X209073629Y-195871486D01*
X209073629Y-195800057D01*
X209145058Y-195657200D01*
X209287915Y-195585771D01*
X209502201Y-195585771D01*
X209645058Y-195657200D01*
X210145058Y-195585771D02*
X210716487Y-195585771D01*
X210359344Y-195085771D02*
X210359344Y-196371486D01*
X210430772Y-196514343D01*
X210573630Y-196585771D01*
X210716487Y-196585771D01*
X211859344Y-196585771D02*
X211859344Y-195800057D01*
X211787915Y-195657200D01*
X211645058Y-195585771D01*
X211359344Y-195585771D01*
X211216487Y-195657200D01*
X211859344Y-196514343D02*
X211716487Y-196585771D01*
X211359344Y-196585771D01*
X211216487Y-196514343D01*
X211145058Y-196371486D01*
X211145058Y-196228629D01*
X211216487Y-196085771D01*
X211359344Y-196014343D01*
X211716487Y-196014343D01*
X211859344Y-195942914D01*
X212573630Y-196585771D02*
X212573630Y-195085771D01*
X212573630Y-195657200D02*
X212716487Y-195585771D01*
X213002201Y-195585771D01*
X213145058Y-195657200D01*
X213216487Y-195728629D01*
X213287916Y-195871486D01*
X213287916Y-196300057D01*
X213216487Y-196442914D01*
X213145058Y-196514343D01*
X213002201Y-196585771D01*
X212716487Y-196585771D01*
X212573630Y-196514343D01*
X214145059Y-196585771D02*
X214002201Y-196514343D01*
X213930773Y-196371486D01*
X213930773Y-195085771D01*
X215287915Y-196514343D02*
X215145058Y-196585771D01*
X214859344Y-196585771D01*
X214716487Y-196514343D01*
X214645058Y-196371486D01*
X214645058Y-195800057D01*
X214716487Y-195657200D01*
X214859344Y-195585771D01*
X215145058Y-195585771D01*
X215287915Y-195657200D01*
X215359344Y-195800057D01*
X215359344Y-195942914D01*
X214645058Y-196085771D01*
D10*
D11*
X177002200Y-191507200D02*
X285002200Y-191507200D01*
D10*
D12*
X264216486Y-193785771D02*
X263716486Y-193071486D01*
X263359343Y-193785771D02*
X263359343Y-192285771D01*
X263930771Y-192285771D01*
X264073629Y-192357200D01*
X264145057Y-192428629D01*
X264216486Y-192571486D01*
X264216486Y-192785771D01*
X264145057Y-192928629D01*
X264073629Y-193000057D01*
X263930771Y-193071486D01*
X263359343Y-193071486D01*
X265430771Y-193714343D02*
X265287914Y-193785771D01*
X265002200Y-193785771D01*
X264859343Y-193714343D01*
X264787914Y-193571486D01*
X264787914Y-193000057D01*
X264859343Y-192857200D01*
X265002200Y-192785771D01*
X265287914Y-192785771D01*
X265430771Y-192857200D01*
X265502200Y-193000057D01*
X265502200Y-193142914D01*
X264787914Y-193285771D01*
X266002200Y-192785771D02*
X266359343Y-193785771D01*
X266716485Y-192785771D01*
X267287914Y-193642914D02*
X267359342Y-193714343D01*
X267287914Y-193785771D01*
X267216485Y-193714343D01*
X267287914Y-193642914D01*
X267287914Y-193785771D01*
X267287914Y-192857200D02*
X267359342Y-192928629D01*
X267287914Y-193000057D01*
X267216485Y-192928629D01*
X267287914Y-192857200D01*
X267287914Y-193000057D01*
X269073628Y-193357200D02*
X269787914Y-193357200D01*
X268930771Y-193785771D02*
X269430771Y-192285771D01*
X269930771Y-193785771D01*
D10*
D11*
X178287914Y-193714343D02*
X178502200Y-193785771D01*
X178859343Y-193785771D01*
X179002200Y-193714343D01*
X179073629Y-193642914D01*
X179145057Y-193500057D01*
X179145057Y-193357200D01*
X179073629Y-193214343D01*
X179002200Y-193142914D01*
X178859343Y-193071486D01*
X178573629Y-193000057D01*
X178430771Y-192928629D01*
X178359343Y-192857200D01*
X178287914Y-192714343D01*
X178287914Y-192571486D01*
X178359343Y-192428629D01*
X178430771Y-192357200D01*
X178573629Y-192285771D01*
X178930771Y-192285771D01*
X179145057Y-192357200D01*
X179787914Y-193785771D02*
X179787914Y-192785771D01*
X179787914Y-192285771D02*
X179716485Y-192357200D01*
X179787914Y-192428629D01*
X179859342Y-192357200D01*
X179787914Y-192285771D01*
X179787914Y-192428629D01*
X180359343Y-192785771D02*
X181145057Y-192785771D01*
X180359343Y-193785771D01*
X181145057Y-193785771D01*
X182287914Y-193714343D02*
X182145057Y-193785771D01*
X181859343Y-193785771D01*
X181716486Y-193714343D01*
X181645057Y-193571486D01*
X181645057Y-193000057D01*
X181716486Y-192857200D01*
X181859343Y-192785771D01*
X182145057Y-192785771D01*
X182287914Y-192857200D01*
X182359343Y-193000057D01*
X182359343Y-193142914D01*
X181645057Y-193285771D01*
X183002200Y-193642914D02*
X183073628Y-193714343D01*
X183002200Y-193785771D01*
X182930771Y-193714343D01*
X183002200Y-193642914D01*
X183002200Y-193785771D01*
X183002200Y-192857200D02*
X183073628Y-192928629D01*
X183002200Y-193000057D01*
X182930771Y-192928629D01*
X183002200Y-192857200D01*
X183002200Y-193000057D01*
X184787914Y-193357200D02*
X185502200Y-193357200D01*
X184645057Y-193785771D02*
X185145057Y-192285771D01*
X185645057Y-193785771D01*
X186787914Y-192785771D02*
X186787914Y-193785771D01*
X186430771Y-192214343D02*
X186073628Y-193285771D01*
X187002200Y-193285771D01*
D10*
D11*
X263359343Y-196585771D02*
X263359343Y-195085771D01*
X264716486Y-196585771D02*
X264716486Y-195085771D01*
X264716486Y-196514343D02*
X264573629Y-196585771D01*
X264287915Y-196585771D01*
X264145057Y-196514343D01*
X264073629Y-196442914D01*
X264002200Y-196300057D01*
X264002200Y-195871486D01*
X264073629Y-195728629D01*
X264145057Y-195657200D01*
X264287915Y-195585771D01*
X264573629Y-195585771D01*
X264716486Y-195657200D01*
X265430772Y-196442914D02*
X265502200Y-196514343D01*
X265430772Y-196585771D01*
X265359343Y-196514343D01*
X265430772Y-196442914D01*
X265430772Y-196585771D01*
X265430772Y-195657200D02*
X265502200Y-195728629D01*
X265430772Y-195800057D01*
X265359343Y-195728629D01*
X265430772Y-195657200D01*
X265430772Y-195800057D01*
X268073629Y-196585771D02*
X267216486Y-196585771D01*
X267645058Y-196585771D02*
X267645058Y-195085771D01*
X267502201Y-195300057D01*
X267359343Y-195442914D01*
X267216486Y-195514343D01*
X269787914Y-195014343D02*
X268502200Y-196942914D01*
X271073629Y-196585771D02*
X270216486Y-196585771D01*
X270645058Y-196585771D02*
X270645058Y-195085771D01*
X270502201Y-195300057D01*
X270359343Y-195442914D01*
X270216486Y-195514343D01*
D10*
D11*
X177002200Y-187507200D02*
X285002200Y-187507200D01*
D10*
D13*
X178454581Y-188211962D02*
X179597438Y-188211962D01*
X178776010Y-190211962D02*
X179026010Y-188211962D01*
X180014105Y-190211962D02*
X180180771Y-188878629D01*
X180264105Y-188211962D02*
X180156962Y-188307200D01*
X180240295Y-188402438D01*
X180347439Y-188307200D01*
X180264105Y-188211962D01*
X180240295Y-188402438D01*
X180847438Y-188878629D02*
X181609343Y-188878629D01*
X181216486Y-188211962D02*
X181002200Y-189926248D01*
X181073630Y-190116724D01*
X181252201Y-190211962D01*
X181442677Y-190211962D01*
X182395058Y-190211962D02*
X182216487Y-190116724D01*
X182145057Y-189926248D01*
X182359343Y-188211962D01*
X183930772Y-190116724D02*
X183728391Y-190211962D01*
X183347439Y-190211962D01*
X183168867Y-190116724D01*
X183097438Y-189926248D01*
X183192676Y-189164343D01*
X183311724Y-188973867D01*
X183514105Y-188878629D01*
X183895057Y-188878629D01*
X184073629Y-188973867D01*
X184145057Y-189164343D01*
X184121248Y-189354819D01*
X183145057Y-189545295D01*
X184895057Y-190021486D02*
X184978392Y-190116724D01*
X184871248Y-190211962D01*
X184787915Y-190116724D01*
X184895057Y-190021486D01*
X184871248Y-190211962D01*
X185026010Y-188973867D02*
X185109344Y-189069105D01*
X185002200Y-189164343D01*
X184918867Y-189069105D01*
X185026010Y-188973867D01*
X185002200Y-189164343D01*
X187323629Y-189640533D02*
X188276010Y-189640533D01*
X187061725Y-190211962D02*
X187978392Y-188211962D01*
X188395059Y-190211962D01*
X189061725Y-190211962D02*
X189311725Y-188211962D01*
X190073630Y-188211962D02*
X191406964Y-188211962D01*
X190299821Y-190211962D01*
X193026011Y-188211962D02*
X192645059Y-188211962D01*
X192442678Y-188307200D01*
X192335535Y-188402438D01*
X192109344Y-188688152D01*
X191966487Y-189069105D01*
X191871249Y-189831010D01*
X191942677Y-190021486D01*
X192026012Y-190116724D01*
X192204583Y-190211962D01*
X192585535Y-190211962D01*
X192787916Y-190116724D01*
X192895058Y-190021486D01*
X193014107Y-189831010D01*
X193073631Y-189354819D01*
X193002201Y-189164343D01*
X192918868Y-189069105D01*
X192740297Y-188973867D01*
X192359345Y-188973867D01*
X192156964Y-189069105D01*
X192049820Y-189164343D01*
X191930773Y-189354819D01*
X194252202Y-189069105D02*
X194073631Y-188973867D01*
X193990296Y-188878629D01*
X193918868Y-188688152D01*
X193930773Y-188592914D01*
X194049820Y-188402438D01*
X194156964Y-188307200D01*
X194359345Y-188211962D01*
X194740297Y-188211962D01*
X194918868Y-188307200D01*
X195002201Y-188402438D01*
X195073631Y-188592914D01*
X195061726Y-188688152D01*
X194942677Y-188878629D01*
X194835535Y-188973867D01*
X194633154Y-189069105D01*
X194252202Y-189069105D01*
X194049821Y-189164343D01*
X193942677Y-189259581D01*
X193823630Y-189450057D01*
X193776011Y-189831010D01*
X193847439Y-190021486D01*
X193930774Y-190116724D01*
X194109345Y-190211962D01*
X194490297Y-190211962D01*
X194692678Y-190116724D01*
X194799820Y-190021486D01*
X194918869Y-189831010D01*
X194966488Y-189450057D01*
X194895058Y-189259581D01*
X194811725Y-189164343D01*
X194633154Y-189069105D01*
X196156964Y-189069105D02*
X195978393Y-188973867D01*
X195895058Y-188878629D01*
X195823630Y-188688152D01*
X195835535Y-188592914D01*
X195954582Y-188402438D01*
X196061726Y-188307200D01*
X196264107Y-188211962D01*
X196645059Y-188211962D01*
X196823630Y-188307200D01*
X196906963Y-188402438D01*
X196978393Y-188592914D01*
X196966488Y-188688152D01*
X196847439Y-188878629D01*
X196740297Y-188973867D01*
X196537916Y-189069105D01*
X196156964Y-189069105D01*
X195954583Y-189164343D01*
X195847439Y-189259581D01*
X195728392Y-189450057D01*
X195680773Y-189831010D01*
X195752201Y-190021486D01*
X195835536Y-190116724D01*
X196014107Y-190211962D01*
X196395059Y-190211962D01*
X196597440Y-190116724D01*
X196704582Y-190021486D01*
X196823631Y-189831010D01*
X196871250Y-189450057D01*
X196799820Y-189259581D01*
X196716487Y-189164343D01*
X196537916Y-189069105D01*
X197633154Y-190211962D02*
X197883154Y-188211962D01*
X197764106Y-189164343D02*
X198906964Y-189164343D01*
X198776012Y-190211962D02*
X199026012Y-188211962D01*
D10*
D11*
X178859343Y-185600057D02*
X178359343Y-185600057D01*
X178359343Y-186385771D02*
X178359343Y-184885771D01*
X179073629Y-184885771D01*
X179645057Y-186385771D02*
X179645057Y-185385771D01*
X179645057Y-184885771D02*
X179573628Y-184957200D01*
X179645057Y-185028629D01*
X179716485Y-184957200D01*
X179645057Y-184885771D01*
X179645057Y-185028629D01*
X180573629Y-186385771D02*
X180430771Y-186314343D01*
X180359343Y-186171486D01*
X180359343Y-184885771D01*
X181716485Y-186314343D02*
X181573628Y-186385771D01*
X181287914Y-186385771D01*
X181145057Y-186314343D01*
X181073628Y-186171486D01*
X181073628Y-185600057D01*
X181145057Y-185457200D01*
X181287914Y-185385771D01*
X181573628Y-185385771D01*
X181716485Y-185457200D01*
X181787914Y-185600057D01*
X181787914Y-185742914D01*
X181073628Y-185885771D01*
X182430771Y-186242914D02*
X182502199Y-186314343D01*
X182430771Y-186385771D01*
X182359342Y-186314343D01*
X182430771Y-186242914D01*
X182430771Y-186385771D01*
X182430771Y-185457200D02*
X182502199Y-185528629D01*
X182430771Y-185600057D01*
X182359342Y-185528629D01*
X182430771Y-185457200D01*
X182430771Y-185600057D01*
X184287914Y-186385771D02*
X184287914Y-184885771D01*
X184287914Y-185600057D02*
X185145057Y-185600057D01*
X185145057Y-186385771D02*
X185145057Y-184885771D01*
X186145057Y-185671486D02*
X186145057Y-186385771D01*
X185645057Y-184885771D02*
X186145057Y-185671486D01*
X186645057Y-184885771D01*
X187145057Y-185814343D02*
X188287914Y-185814343D01*
X188930771Y-185957200D02*
X189645057Y-185957200D01*
X188787914Y-186385771D02*
X189287914Y-184885771D01*
X189787914Y-186385771D01*
X190287914Y-186385771D02*
X190287914Y-184885771D01*
X190859343Y-184885771D02*
X191859343Y-184885771D01*
X191216486Y-186385771D01*
X193073628Y-184885771D02*
X192787914Y-184885771D01*
X192645057Y-184957200D01*
X192573628Y-185028629D01*
X192430771Y-185242914D01*
X192359342Y-185528629D01*
X192359342Y-186100057D01*
X192430771Y-186242914D01*
X192502199Y-186314343D01*
X192645057Y-186385771D01*
X192930771Y-186385771D01*
X193073628Y-186314343D01*
X193145057Y-186242914D01*
X193216485Y-186100057D01*
X193216485Y-185742914D01*
X193145057Y-185600057D01*
X193073628Y-185528629D01*
X192930771Y-185457200D01*
X192645057Y-185457200D01*
X192502199Y-185528629D01*
X192430771Y-185600057D01*
X192359342Y-185742914D01*
X194073628Y-185528629D02*
X193930770Y-185457200D01*
X193859342Y-185385771D01*
X193787913Y-185242914D01*
X193787913Y-185171486D01*
X193859342Y-185028629D01*
X193930770Y-184957200D01*
X194073628Y-184885771D01*
X194359342Y-184885771D01*
X194502199Y-184957200D01*
X194573628Y-185028629D01*
X194645056Y-185171486D01*
X194645056Y-185242914D01*
X194573628Y-185385771D01*
X194502199Y-185457200D01*
X194359342Y-185528629D01*
X194073628Y-185528629D01*
X193930770Y-185600057D01*
X193859342Y-185671486D01*
X193787913Y-185814343D01*
X193787913Y-186100057D01*
X193859342Y-186242914D01*
X193930770Y-186314343D01*
X194073628Y-186385771D01*
X194359342Y-186385771D01*
X194502199Y-186314343D01*
X194573628Y-186242914D01*
X194645056Y-186100057D01*
X194645056Y-185814343D01*
X194573628Y-185671486D01*
X194502199Y-185600057D01*
X194359342Y-185528629D01*
X195502199Y-185528629D02*
X195359341Y-185457200D01*
X195287913Y-185385771D01*
X195216484Y-185242914D01*
X195216484Y-185171486D01*
X195287913Y-185028629D01*
X195359341Y-184957200D01*
X195502199Y-184885771D01*
X195787913Y-184885771D01*
X195930770Y-184957200D01*
X196002199Y-185028629D01*
X196073627Y-185171486D01*
X196073627Y-185242914D01*
X196002199Y-185385771D01*
X195930770Y-185457200D01*
X195787913Y-185528629D01*
X195502199Y-185528629D01*
X195359341Y-185600057D01*
X195287913Y-185671486D01*
X195216484Y-185814343D01*
X195216484Y-186100057D01*
X195287913Y-186242914D01*
X195359341Y-186314343D01*
X195502199Y-186385771D01*
X195787913Y-186385771D01*
X195930770Y-186314343D01*
X196002199Y-186242914D01*
X196073627Y-186100057D01*
X196073627Y-185814343D01*
X196002199Y-185671486D01*
X195930770Y-185600057D01*
X195787913Y-185528629D01*
X196716484Y-186385771D02*
X196716484Y-184885771D01*
X196716484Y-185600057D02*
X197573627Y-185600057D01*
X197573627Y-186385771D02*
X197573627Y-184885771D01*
X198287913Y-186242914D02*
X198359341Y-186314343D01*
X198287913Y-186385771D01*
X198216484Y-186314343D01*
X198287913Y-186242914D01*
X198287913Y-186385771D01*
X199002199Y-186385771D02*
X199002199Y-184885771D01*
X199145056Y-185814343D02*
X199573627Y-186385771D01*
X199573627Y-185385771D02*
X199002199Y-185957200D01*
X200216485Y-186385771D02*
X200216485Y-185385771D01*
X200216485Y-184885771D02*
X200145056Y-184957200D01*
X200216485Y-185028629D01*
X200287913Y-184957200D01*
X200216485Y-184885771D01*
X200216485Y-185028629D01*
X201573628Y-186314343D02*
X201430771Y-186385771D01*
X201145057Y-186385771D01*
X201002199Y-186314343D01*
X200930771Y-186242914D01*
X200859342Y-186100057D01*
X200859342Y-185671486D01*
X200930771Y-185528629D01*
X201002199Y-185457200D01*
X201145057Y-185385771D01*
X201430771Y-185385771D01*
X201573628Y-185457200D01*
X202859342Y-186385771D02*
X202859342Y-185600057D01*
X202787913Y-185457200D01*
X202645056Y-185385771D01*
X202359342Y-185385771D01*
X202216485Y-185457200D01*
X202859342Y-186314343D02*
X202716485Y-186385771D01*
X202359342Y-186385771D01*
X202216485Y-186314343D01*
X202145056Y-186171486D01*
X202145056Y-186028629D01*
X202216485Y-185885771D01*
X202359342Y-185814343D01*
X202716485Y-185814343D01*
X202859342Y-185742914D01*
X204216485Y-186385771D02*
X204216485Y-184885771D01*
X204216485Y-186314343D02*
X204073628Y-186385771D01*
X203787914Y-186385771D01*
X203645056Y-186314343D01*
X203573628Y-186242914D01*
X203502199Y-186100057D01*
X203502199Y-185671486D01*
X203573628Y-185528629D01*
X203645056Y-185457200D01*
X203787914Y-185385771D01*
X204073628Y-185385771D01*
X204216485Y-185457200D01*
X204573628Y-186528629D02*
X205716485Y-186528629D01*
X206073628Y-185385771D02*
X206073628Y-186885771D01*
X206073628Y-185457200D02*
X206216485Y-185385771D01*
X206502199Y-185385771D01*
X206645056Y-185457200D01*
X206716485Y-185528629D01*
X206787914Y-185671486D01*
X206787914Y-186100057D01*
X206716485Y-186242914D01*
X206645056Y-186314343D01*
X206502199Y-186385771D01*
X206216485Y-186385771D01*
X206073628Y-186314343D01*
X208073628Y-186314343D02*
X207930771Y-186385771D01*
X207645057Y-186385771D01*
X207502199Y-186314343D01*
X207430771Y-186242914D01*
X207359342Y-186100057D01*
X207359342Y-185671486D01*
X207430771Y-185528629D01*
X207502199Y-185457200D01*
X207645057Y-185385771D01*
X207930771Y-185385771D01*
X208073628Y-185457200D01*
X208716485Y-186385771D02*
X208716485Y-184885771D01*
X208716485Y-185457200D02*
X208859342Y-185385771D01*
X209145056Y-185385771D01*
X209287913Y-185457200D01*
X209359342Y-185528629D01*
X209430771Y-185671486D01*
X209430771Y-186100057D01*
X209359342Y-186242914D01*
X209287913Y-186314343D01*
X209145056Y-186385771D01*
X208859342Y-186385771D01*
X208716485Y-186314343D01*
D10*
D11*
X177002200Y-181507200D02*
X285002200Y-181507200D01*
D10*
D11*
X178287914Y-183614343D02*
X178502200Y-183685771D01*
X178859343Y-183685771D01*
X179002200Y-183614343D01*
X179073629Y-183542914D01*
X179145057Y-183400057D01*
X179145057Y-183257200D01*
X179073629Y-183114343D01*
X179002200Y-183042914D01*
X178859343Y-182971486D01*
X178573629Y-182900057D01*
X178430771Y-182828629D01*
X178359343Y-182757200D01*
X178287914Y-182614343D01*
X178287914Y-182471486D01*
X178359343Y-182328629D01*
X178430771Y-182257200D01*
X178573629Y-182185771D01*
X178930771Y-182185771D01*
X179145057Y-182257200D01*
X179787914Y-183685771D02*
X179787914Y-182185771D01*
X180430771Y-183685771D02*
X180430771Y-182900057D01*
X180359342Y-182757200D01*
X180216485Y-182685771D01*
X180002200Y-182685771D01*
X179859342Y-182757200D01*
X179787914Y-182828629D01*
X181716485Y-183614343D02*
X181573628Y-183685771D01*
X181287914Y-183685771D01*
X181145057Y-183614343D01*
X181073628Y-183471486D01*
X181073628Y-182900057D01*
X181145057Y-182757200D01*
X181287914Y-182685771D01*
X181573628Y-182685771D01*
X181716485Y-182757200D01*
X181787914Y-182900057D01*
X181787914Y-183042914D01*
X181073628Y-183185771D01*
X183002199Y-183614343D02*
X182859342Y-183685771D01*
X182573628Y-183685771D01*
X182430771Y-183614343D01*
X182359342Y-183471486D01*
X182359342Y-182900057D01*
X182430771Y-182757200D01*
X182573628Y-182685771D01*
X182859342Y-182685771D01*
X183002199Y-182757200D01*
X183073628Y-182900057D01*
X183073628Y-183042914D01*
X182359342Y-183185771D01*
X183502199Y-182685771D02*
X184073628Y-182685771D01*
X183716485Y-182185771D02*
X183716485Y-183471486D01*
X183787913Y-183614343D01*
X183930771Y-183685771D01*
X184073628Y-183685771D01*
X184573628Y-183542914D02*
X184645056Y-183614343D01*
X184573628Y-183685771D01*
X184502199Y-183614343D01*
X184573628Y-183542914D01*
X184573628Y-183685771D01*
X184573628Y-182757200D02*
X184645056Y-182828629D01*
X184573628Y-182900057D01*
X184502199Y-182828629D01*
X184573628Y-182757200D01*
X184573628Y-182900057D01*
D10*
D12*
X178287914Y-180257200D02*
X179002200Y-180257200D01*
X178145057Y-180685771D02*
X178645057Y-179185771D01*
X179145057Y-180685771D01*
X180502200Y-180685771D02*
X180002200Y-179971486D01*
X179645057Y-180685771D02*
X179645057Y-179185771D01*
X180216485Y-179185771D01*
X180359343Y-179257200D01*
X180430771Y-179328629D01*
X180502200Y-179471486D01*
X180502200Y-179685771D01*
X180430771Y-179828629D01*
X180359343Y-179900057D01*
X180216485Y-179971486D01*
X179645057Y-179971486D01*
X181145057Y-180685771D02*
X181145057Y-179185771D01*
X181645057Y-180257200D01*
X182145057Y-179185771D01*
X182145057Y-180685771D01*
X182645057Y-179185771D02*
X183145057Y-180685771D01*
X183645057Y-179185771D01*
X184145057Y-180685771D02*
X184145057Y-179185771D01*
X185002200Y-180685771D01*
X185002200Y-179185771D01*
D10*
D11*
X197002200Y-191507200D02*
X197002200Y-194507200D01*
D10*
D11*
X261002200Y-191507200D02*
X261002200Y-198007200D01*
D10*
G36*
X78336109Y-112802130D02*
X78950846Y-112928318D01*
X79529361Y-113171503D01*
X80049629Y-113522428D01*
X80491822Y-113967718D01*
X80839107Y-114490424D01*
X81078245Y-115070619D01*
X81200071Y-115685880D01*
X81200071Y-115685890D01*
X81200137Y-115686224D01*
X81190128Y-116403007D01*
X81190052Y-116403341D01*
X81190052Y-116403353D01*
X81051098Y-117014963D01*
X80795848Y-117588262D01*
X80434108Y-118101063D01*
X79979647Y-118533839D01*
X79449791Y-118870096D01*
X78864707Y-119097036D01*
X78246691Y-119206008D01*
X77619276Y-119192866D01*
X77006358Y-119058107D01*
X76431294Y-118806867D01*
X75915981Y-118448716D01*
X75480044Y-117997290D01*
X75140096Y-117469794D01*
X74909078Y-116886310D01*
X74795791Y-116269062D01*
X74804554Y-115641572D01*
X74935028Y-115027736D01*
X75182249Y-114450928D01*
X75536796Y-113933126D01*
X75985166Y-113494049D01*
X76510279Y-113150425D01*
X77092135Y-112915339D01*
X77708569Y-112797748D01*
X78336109Y-112802130D01*
X78336109Y-112802130D01*
G37*
G36*
X167336109Y-112802130D02*
X167950846Y-112928318D01*
X168529361Y-113171503D01*
X169049629Y-113522428D01*
X169491822Y-113967718D01*
X169839107Y-114490424D01*
X170078245Y-115070619D01*
X170200071Y-115685880D01*
X170200071Y-115685890D01*
X170200137Y-115686224D01*
X170190128Y-116403007D01*
X170190052Y-116403341D01*
X170190052Y-116403353D01*
X170051098Y-117014963D01*
X169795848Y-117588262D01*
X169434108Y-118101063D01*
X168979647Y-118533839D01*
X168449791Y-118870096D01*
X167864707Y-119097036D01*
X167246691Y-119206008D01*
X166619276Y-119192866D01*
X166006358Y-119058107D01*
X165431294Y-118806867D01*
X164915981Y-118448716D01*
X164480044Y-117997290D01*
X164140096Y-117469794D01*
X163909078Y-116886310D01*
X163795791Y-116269062D01*
X163804554Y-115641572D01*
X163935028Y-115027736D01*
X164182249Y-114450928D01*
X164536796Y-113933126D01*
X164985166Y-113494049D01*
X165510279Y-113150425D01*
X166092135Y-112915339D01*
X166708569Y-112797748D01*
X167336109Y-112802130D01*
X167336109Y-112802130D01*
G37*
G36*
X113128711Y-115138824D02*
X113309253Y-115175885D01*
X113479154Y-115247304D01*
X113631950Y-115350366D01*
X113761819Y-115481146D01*
X113863813Y-115634658D01*
X113934042Y-115805049D01*
X113969774Y-115985504D01*
X113969774Y-115985514D01*
X113969840Y-115985848D01*
X113966901Y-116196358D01*
X113966824Y-116196697D01*
X113966824Y-116196700D01*
X113926070Y-116376086D01*
X113851107Y-116544453D01*
X113744869Y-116695056D01*
X113611396Y-116822160D01*
X113455787Y-116920912D01*
X113283954Y-116987563D01*
X113102452Y-117019566D01*
X112918188Y-117015707D01*
X112738176Y-116976128D01*
X112569290Y-116902344D01*
X112417949Y-116797159D01*
X112289918Y-116664579D01*
X112190081Y-116509663D01*
X112122234Y-116338300D01*
X112088962Y-116157018D01*
X112091536Y-115972733D01*
X112129854Y-115792459D01*
X112202461Y-115623056D01*
X112306587Y-115470985D01*
X112438269Y-115342031D01*
X112592487Y-115241114D01*
X112763371Y-115172072D01*
X112944408Y-115137537D01*
X113128711Y-115138824D01*
X113128711Y-115138824D01*
G37*
G36*
X115668711Y-115138824D02*
X115849253Y-115175885D01*
X116019154Y-115247304D01*
X116171950Y-115350366D01*
X116301819Y-115481146D01*
X116403813Y-115634658D01*
X116474042Y-115805049D01*
X116509774Y-115985504D01*
X116509774Y-115985514D01*
X116509840Y-115985848D01*
X116506901Y-116196358D01*
X116506824Y-116196697D01*
X116506824Y-116196700D01*
X116466070Y-116376086D01*
X116391107Y-116544453D01*
X116284869Y-116695056D01*
X116151396Y-116822160D01*
X115995787Y-116920912D01*
X115823954Y-116987563D01*
X115642452Y-117019566D01*
X115458188Y-117015707D01*
X115278176Y-116976128D01*
X115109290Y-116902344D01*
X114957949Y-116797159D01*
X114829918Y-116664579D01*
X114730081Y-116509663D01*
X114662234Y-116338300D01*
X114628962Y-116157018D01*
X114631536Y-115972733D01*
X114669854Y-115792459D01*
X114742461Y-115623056D01*
X114846587Y-115470985D01*
X114978269Y-115342031D01*
X115132487Y-115241114D01*
X115303371Y-115172072D01*
X115484408Y-115137537D01*
X115668711Y-115138824D01*
X115668711Y-115138824D01*
G37*
G36*
X120748711Y-115138824D02*
X120929253Y-115175885D01*
X121099154Y-115247304D01*
X121251950Y-115350366D01*
X121381819Y-115481146D01*
X121483813Y-115634658D01*
X121554042Y-115805049D01*
X121589774Y-115985504D01*
X121589774Y-115985514D01*
X121589840Y-115985848D01*
X121586901Y-116196358D01*
X121586824Y-116196697D01*
X121586824Y-116196700D01*
X121546070Y-116376086D01*
X121471107Y-116544453D01*
X121364869Y-116695056D01*
X121231396Y-116822160D01*
X121075787Y-116920912D01*
X120903954Y-116987563D01*
X120722452Y-117019566D01*
X120538188Y-117015707D01*
X120358176Y-116976128D01*
X120189290Y-116902344D01*
X120037949Y-116797159D01*
X119909918Y-116664579D01*
X119810081Y-116509663D01*
X119742234Y-116338300D01*
X119708962Y-116157018D01*
X119711536Y-115972733D01*
X119749854Y-115792459D01*
X119822461Y-115623056D01*
X119926587Y-115470985D01*
X120058269Y-115342031D01*
X120212487Y-115241114D01*
X120383371Y-115172072D01*
X120564408Y-115137537D01*
X120748711Y-115138824D01*
X120748711Y-115138824D01*
G37*
G36*
X118208711Y-115138824D02*
X118389253Y-115175885D01*
X118559154Y-115247304D01*
X118711950Y-115350366D01*
X118841819Y-115481146D01*
X118943813Y-115634658D01*
X119014042Y-115805049D01*
X119049774Y-115985504D01*
X119049774Y-115985514D01*
X119049840Y-115985848D01*
X119046901Y-116196358D01*
X119046824Y-116196697D01*
X119046824Y-116196700D01*
X119006070Y-116376086D01*
X118931107Y-116544453D01*
X118824869Y-116695056D01*
X118691396Y-116822160D01*
X118535787Y-116920912D01*
X118363954Y-116987563D01*
X118182452Y-117019566D01*
X117998188Y-117015707D01*
X117818176Y-116976128D01*
X117649290Y-116902344D01*
X117497949Y-116797159D01*
X117369918Y-116664579D01*
X117270081Y-116509663D01*
X117202234Y-116338300D01*
X117168962Y-116157018D01*
X117171536Y-115972733D01*
X117209854Y-115792459D01*
X117282461Y-115623056D01*
X117386587Y-115470985D01*
X117518269Y-115342031D01*
X117672487Y-115241114D01*
X117843371Y-115172072D01*
X118024408Y-115137537D01*
X118208711Y-115138824D01*
X118208711Y-115138824D01*
G37*
G36*
X130908711Y-115138824D02*
X131089253Y-115175885D01*
X131259154Y-115247304D01*
X131411950Y-115350366D01*
X131541819Y-115481146D01*
X131643813Y-115634658D01*
X131714042Y-115805049D01*
X131749774Y-115985504D01*
X131749774Y-115985514D01*
X131749840Y-115985848D01*
X131746901Y-116196358D01*
X131746824Y-116196697D01*
X131746824Y-116196700D01*
X131706070Y-116376086D01*
X131631107Y-116544453D01*
X131524869Y-116695056D01*
X131391396Y-116822160D01*
X131235787Y-116920912D01*
X131063954Y-116987563D01*
X130882452Y-117019566D01*
X130698188Y-117015707D01*
X130518176Y-116976128D01*
X130349290Y-116902344D01*
X130197949Y-116797159D01*
X130069918Y-116664579D01*
X129970081Y-116509663D01*
X129902234Y-116338300D01*
X129868962Y-116157018D01*
X129871536Y-115972733D01*
X129909854Y-115792459D01*
X129982461Y-115623056D01*
X130086587Y-115470985D01*
X130218269Y-115342031D01*
X130372487Y-115241114D01*
X130543371Y-115172072D01*
X130724408Y-115137537D01*
X130908711Y-115138824D01*
X130908711Y-115138824D01*
G37*
G36*
X123288711Y-115138824D02*
X123469253Y-115175885D01*
X123639154Y-115247304D01*
X123791950Y-115350366D01*
X123921819Y-115481146D01*
X124023813Y-115634658D01*
X124094042Y-115805049D01*
X124129774Y-115985504D01*
X124129774Y-115985514D01*
X124129840Y-115985848D01*
X124126901Y-116196358D01*
X124126824Y-116196697D01*
X124126824Y-116196700D01*
X124086070Y-116376086D01*
X124011107Y-116544453D01*
X123904869Y-116695056D01*
X123771396Y-116822160D01*
X123615787Y-116920912D01*
X123443954Y-116987563D01*
X123262452Y-117019566D01*
X123078188Y-117015707D01*
X122898176Y-116976128D01*
X122729290Y-116902344D01*
X122577949Y-116797159D01*
X122449918Y-116664579D01*
X122350081Y-116509663D01*
X122282234Y-116338300D01*
X122248962Y-116157018D01*
X122251536Y-115972733D01*
X122289854Y-115792459D01*
X122362461Y-115623056D01*
X122466587Y-115470985D01*
X122598269Y-115342031D01*
X122752487Y-115241114D01*
X122923371Y-115172072D01*
X123104408Y-115137537D01*
X123288711Y-115138824D01*
X123288711Y-115138824D01*
G37*
G36*
X128368711Y-115138824D02*
X128549253Y-115175885D01*
X128719154Y-115247304D01*
X128871950Y-115350366D01*
X129001819Y-115481146D01*
X129103813Y-115634658D01*
X129174042Y-115805049D01*
X129209774Y-115985504D01*
X129209774Y-115985514D01*
X129209840Y-115985848D01*
X129206901Y-116196358D01*
X129206824Y-116196697D01*
X129206824Y-116196700D01*
X129166070Y-116376086D01*
X129091107Y-116544453D01*
X128984869Y-116695056D01*
X128851396Y-116822160D01*
X128695787Y-116920912D01*
X128523954Y-116987563D01*
X128342452Y-117019566D01*
X128158188Y-117015707D01*
X127978176Y-116976128D01*
X127809290Y-116902344D01*
X127657949Y-116797159D01*
X127529918Y-116664579D01*
X127430081Y-116509663D01*
X127362234Y-116338300D01*
X127328962Y-116157018D01*
X127331536Y-115972733D01*
X127369854Y-115792459D01*
X127442461Y-115623056D01*
X127546587Y-115470985D01*
X127678269Y-115342031D01*
X127832487Y-115241114D01*
X128003371Y-115172072D01*
X128184408Y-115137537D01*
X128368711Y-115138824D01*
X128368711Y-115138824D01*
G37*
G36*
X133448711Y-115138824D02*
X133629253Y-115175885D01*
X133799154Y-115247304D01*
X133951950Y-115350366D01*
X134081819Y-115481146D01*
X134183813Y-115634658D01*
X134254042Y-115805049D01*
X134289774Y-115985504D01*
X134289774Y-115985514D01*
X134289840Y-115985848D01*
X134286901Y-116196358D01*
X134286824Y-116196697D01*
X134286824Y-116196700D01*
X134246070Y-116376086D01*
X134171107Y-116544453D01*
X134064869Y-116695056D01*
X133931396Y-116822160D01*
X133775787Y-116920912D01*
X133603954Y-116987563D01*
X133422452Y-117019566D01*
X133238188Y-117015707D01*
X133058176Y-116976128D01*
X132889290Y-116902344D01*
X132737949Y-116797159D01*
X132609918Y-116664579D01*
X132510081Y-116509663D01*
X132442234Y-116338300D01*
X132408962Y-116157018D01*
X132411536Y-115972733D01*
X132449854Y-115792459D01*
X132522461Y-115623056D01*
X132626587Y-115470985D01*
X132758269Y-115342031D01*
X132912487Y-115241114D01*
X133083371Y-115172072D01*
X133264408Y-115137537D01*
X133448711Y-115138824D01*
X133448711Y-115138824D01*
G37*
G36*
X135988711Y-115138824D02*
X136169253Y-115175885D01*
X136339154Y-115247304D01*
X136491950Y-115350366D01*
X136621819Y-115481146D01*
X136723813Y-115634658D01*
X136794042Y-115805049D01*
X136829774Y-115985504D01*
X136829774Y-115985514D01*
X136829840Y-115985848D01*
X136826901Y-116196358D01*
X136826824Y-116196697D01*
X136826824Y-116196700D01*
X136786070Y-116376086D01*
X136711107Y-116544453D01*
X136604869Y-116695056D01*
X136471396Y-116822160D01*
X136315787Y-116920912D01*
X136143954Y-116987563D01*
X135962452Y-117019566D01*
X135778188Y-117015707D01*
X135598176Y-116976128D01*
X135429290Y-116902344D01*
X135277949Y-116797159D01*
X135149918Y-116664579D01*
X135050081Y-116509663D01*
X134982234Y-116338300D01*
X134948962Y-116157018D01*
X134951536Y-115972733D01*
X134989854Y-115792459D01*
X135062461Y-115623056D01*
X135166587Y-115470985D01*
X135298269Y-115342031D01*
X135452487Y-115241114D01*
X135623371Y-115172072D01*
X135804408Y-115137537D01*
X135988711Y-115138824D01*
X135988711Y-115138824D01*
G37*
G36*
X138528711Y-115138824D02*
X138709253Y-115175885D01*
X138879154Y-115247304D01*
X139031950Y-115350366D01*
X139161819Y-115481146D01*
X139263813Y-115634658D01*
X139334042Y-115805049D01*
X139369774Y-115985504D01*
X139369774Y-115985514D01*
X139369840Y-115985848D01*
X139366901Y-116196358D01*
X139366824Y-116196697D01*
X139366824Y-116196700D01*
X139326070Y-116376086D01*
X139251107Y-116544453D01*
X139144869Y-116695056D01*
X139011396Y-116822160D01*
X138855787Y-116920912D01*
X138683954Y-116987563D01*
X138502452Y-117019566D01*
X138318188Y-117015707D01*
X138138176Y-116976128D01*
X137969290Y-116902344D01*
X137817949Y-116797159D01*
X137689918Y-116664579D01*
X137590081Y-116509663D01*
X137522234Y-116338300D01*
X137488962Y-116157018D01*
X137491536Y-115972733D01*
X137529854Y-115792459D01*
X137602461Y-115623056D01*
X137706587Y-115470985D01*
X137838269Y-115342031D01*
X137992487Y-115241114D01*
X138163371Y-115172072D01*
X138344408Y-115137537D01*
X138528711Y-115138824D01*
X138528711Y-115138824D01*
G37*
G36*
X125828711Y-115138824D02*
X126009253Y-115175885D01*
X126179154Y-115247304D01*
X126331950Y-115350366D01*
X126461819Y-115481146D01*
X126563813Y-115634658D01*
X126634042Y-115805049D01*
X126669774Y-115985504D01*
X126669774Y-115985514D01*
X126669840Y-115985848D01*
X126666901Y-116196358D01*
X126666824Y-116196697D01*
X126666824Y-116196700D01*
X126626070Y-116376086D01*
X126551107Y-116544453D01*
X126444869Y-116695056D01*
X126311396Y-116822160D01*
X126155787Y-116920912D01*
X125983954Y-116987563D01*
X125802452Y-117019566D01*
X125618188Y-117015707D01*
X125438176Y-116976128D01*
X125269290Y-116902344D01*
X125117949Y-116797159D01*
X124989918Y-116664579D01*
X124890081Y-116509663D01*
X124822234Y-116338300D01*
X124788962Y-116157018D01*
X124791536Y-115972733D01*
X124829854Y-115792459D01*
X124902461Y-115623056D01*
X125006587Y-115470985D01*
X125138269Y-115342031D01*
X125292487Y-115241114D01*
X125463371Y-115172072D01*
X125644408Y-115137537D01*
X125828711Y-115138824D01*
X125828711Y-115138824D01*
G37*
G36*
X141909800Y-117017800D02*
X140030200Y-117017800D01*
X140030200Y-115138200D01*
X141909800Y-115138200D01*
X141909800Y-117017800D01*
X141909800Y-117017800D01*
G37*
G36*
X76515468Y-109434078D02*
X76515476Y-109434079D01*
X76517490Y-109434093D01*
X76701742Y-109454760D01*
X76878471Y-109510821D01*
X77040945Y-109600142D01*
X77182975Y-109719320D01*
X77299152Y-109863815D01*
X77385051Y-110028124D01*
X77437399Y-110205988D01*
X77437402Y-110206022D01*
X77437406Y-110206035D01*
X77454206Y-110390629D01*
X77434829Y-110574976D01*
X77434826Y-110574986D01*
X77434822Y-110575024D01*
X77379996Y-110752140D01*
X77291812Y-110915233D01*
X77173628Y-111058092D01*
X77029948Y-111175275D01*
X76866243Y-111262319D01*
X76688749Y-111315907D01*
X76504226Y-111334000D01*
X74987735Y-111334000D01*
X74976532Y-111333922D01*
X74976524Y-111333921D01*
X74974510Y-111333907D01*
X74790258Y-111313240D01*
X74613529Y-111257179D01*
X74451055Y-111167858D01*
X74309025Y-111048680D01*
X74192848Y-110904185D01*
X74106949Y-110739876D01*
X74054601Y-110562012D01*
X74054598Y-110561978D01*
X74054594Y-110561965D01*
X74037794Y-110377371D01*
X74057171Y-110193024D01*
X74057174Y-110193014D01*
X74057178Y-110192976D01*
X74112004Y-110015860D01*
X74200188Y-109852767D01*
X74318372Y-109709908D01*
X74462052Y-109592725D01*
X74625757Y-109505681D01*
X74803251Y-109452093D01*
X74987774Y-109434000D01*
X76504265Y-109434000D01*
X76515468Y-109434078D01*
X76515468Y-109434078D01*
G37*
G36*
X154060800Y-110144800D02*
X152181200Y-110144800D01*
X152181200Y-108265200D01*
X154060800Y-108265200D01*
X154060800Y-110144800D01*
X154060800Y-110144800D01*
G37*
G36*
X79036610Y-107959042D02*
X79041069Y-107959073D01*
X79186531Y-107975389D01*
X79326053Y-108019648D01*
X79454322Y-108090165D01*
X79566452Y-108184252D01*
X79658170Y-108298328D01*
X79725985Y-108428045D01*
X79767312Y-108568464D01*
X79767315Y-108568493D01*
X79767320Y-108568511D01*
X79780582Y-108714233D01*
X79765285Y-108859760D01*
X79765282Y-108859770D01*
X79765278Y-108859808D01*
X79721994Y-108999637D01*
X79652375Y-109128395D01*
X79559073Y-109241178D01*
X79445641Y-109333691D01*
X79316400Y-109402410D01*
X79176273Y-109444716D01*
X79030597Y-109459000D01*
X78621367Y-109459000D01*
X78615390Y-109458958D01*
X78610931Y-109458927D01*
X78465469Y-109442611D01*
X78325947Y-109398352D01*
X78197678Y-109327835D01*
X78085548Y-109233748D01*
X77993830Y-109119672D01*
X77926015Y-108989955D01*
X77884688Y-108849536D01*
X77884685Y-108849507D01*
X77884680Y-108849489D01*
X77871418Y-108703767D01*
X77886715Y-108558240D01*
X77886718Y-108558230D01*
X77886722Y-108558192D01*
X77930006Y-108418363D01*
X77999625Y-108289605D01*
X78092927Y-108176822D01*
X78206359Y-108084309D01*
X78335600Y-108015590D01*
X78475727Y-107973284D01*
X78621403Y-107959000D01*
X79030633Y-107959000D01*
X79036610Y-107959042D01*
X79036610Y-107959042D01*
G37*
G36*
X153219711Y-105725824D02*
X153400253Y-105762885D01*
X153570154Y-105834304D01*
X153722950Y-105937366D01*
X153852819Y-106068146D01*
X153954813Y-106221658D01*
X154025042Y-106392049D01*
X154060774Y-106572504D01*
X154060774Y-106572514D01*
X154060840Y-106572848D01*
X154057901Y-106783358D01*
X154057824Y-106783697D01*
X154057824Y-106783700D01*
X154017070Y-106963086D01*
X153942107Y-107131453D01*
X153835869Y-107282056D01*
X153702396Y-107409160D01*
X153546787Y-107507912D01*
X153374954Y-107574563D01*
X153193452Y-107606566D01*
X153009188Y-107602707D01*
X152829176Y-107563128D01*
X152660290Y-107489344D01*
X152508949Y-107384159D01*
X152380918Y-107251579D01*
X152281081Y-107096663D01*
X152213234Y-106925300D01*
X152179962Y-106744018D01*
X152182536Y-106559733D01*
X152220854Y-106379459D01*
X152293461Y-106210056D01*
X152397587Y-106057985D01*
X152529269Y-105929031D01*
X152683487Y-105828114D01*
X152854371Y-105759072D01*
X153035408Y-105724537D01*
X153219711Y-105725824D01*
X153219711Y-105725824D01*
G37*
G36*
X153219711Y-103185824D02*
X153400253Y-103222885D01*
X153570154Y-103294304D01*
X153722950Y-103397366D01*
X153852819Y-103528146D01*
X153954813Y-103681658D01*
X154025042Y-103852049D01*
X154060774Y-104032504D01*
X154060774Y-104032514D01*
X154060840Y-104032848D01*
X154057901Y-104243358D01*
X154057824Y-104243697D01*
X154057824Y-104243700D01*
X154017070Y-104423086D01*
X153942107Y-104591453D01*
X153835869Y-104742056D01*
X153702396Y-104869160D01*
X153546787Y-104967912D01*
X153374954Y-105034563D01*
X153193452Y-105066566D01*
X153009188Y-105062707D01*
X152829176Y-105023128D01*
X152660290Y-104949344D01*
X152508949Y-104844159D01*
X152380918Y-104711579D01*
X152281081Y-104556663D01*
X152213234Y-104385300D01*
X152179962Y-104204018D01*
X152182536Y-104019733D01*
X152220854Y-103839459D01*
X152293461Y-103670056D01*
X152397587Y-103517985D01*
X152529269Y-103389031D01*
X152683487Y-103288114D01*
X152854371Y-103219072D01*
X153035408Y-103184537D01*
X153219711Y-103185824D01*
X153219711Y-103185824D01*
G37*
G36*
X79036610Y-103109042D02*
X79041069Y-103109073D01*
X79186531Y-103125389D01*
X79326053Y-103169648D01*
X79454322Y-103240165D01*
X79566452Y-103334252D01*
X79658170Y-103448328D01*
X79725985Y-103578045D01*
X79767312Y-103718464D01*
X79767315Y-103718493D01*
X79767320Y-103718511D01*
X79780582Y-103864233D01*
X79765285Y-104009760D01*
X79765282Y-104009770D01*
X79765278Y-104009808D01*
X79721994Y-104149637D01*
X79652375Y-104278395D01*
X79559073Y-104391178D01*
X79445641Y-104483691D01*
X79316400Y-104552410D01*
X79176273Y-104594716D01*
X79030597Y-104609000D01*
X78621367Y-104609000D01*
X78615390Y-104608958D01*
X78610931Y-104608927D01*
X78465469Y-104592611D01*
X78325947Y-104548352D01*
X78197678Y-104477835D01*
X78085548Y-104383748D01*
X77993830Y-104269672D01*
X77926015Y-104139955D01*
X77884688Y-103999536D01*
X77884685Y-103999507D01*
X77884680Y-103999489D01*
X77871418Y-103853767D01*
X77886715Y-103708240D01*
X77886718Y-103708230D01*
X77886722Y-103708192D01*
X77930006Y-103568363D01*
X77999625Y-103439605D01*
X78092927Y-103326822D01*
X78206359Y-103234309D01*
X78335600Y-103165590D01*
X78475727Y-103123284D01*
X78621403Y-103109000D01*
X79030633Y-103109000D01*
X79036610Y-103109042D01*
X79036610Y-103109042D01*
G37*
G36*
X76515468Y-101234078D02*
X76515476Y-101234079D01*
X76517490Y-101234093D01*
X76701742Y-101254760D01*
X76878471Y-101310821D01*
X77040945Y-101400142D01*
X77182975Y-101519320D01*
X77299152Y-101663815D01*
X77385051Y-101828124D01*
X77437399Y-102005988D01*
X77437402Y-102006022D01*
X77437406Y-102006035D01*
X77454206Y-102190629D01*
X77434829Y-102374976D01*
X77434826Y-102374986D01*
X77434822Y-102375024D01*
X77379996Y-102552140D01*
X77291812Y-102715233D01*
X77173628Y-102858092D01*
X77029948Y-102975275D01*
X76866243Y-103062319D01*
X76688749Y-103115907D01*
X76504226Y-103134000D01*
X74987735Y-103134000D01*
X74976532Y-103133922D01*
X74976524Y-103133921D01*
X74974510Y-103133907D01*
X74790258Y-103113240D01*
X74613529Y-103057179D01*
X74451055Y-102967858D01*
X74309025Y-102848680D01*
X74192848Y-102704185D01*
X74106949Y-102539876D01*
X74054601Y-102362012D01*
X74054598Y-102361978D01*
X74054594Y-102361965D01*
X74037794Y-102177371D01*
X74057171Y-101993024D01*
X74057174Y-101993014D01*
X74057178Y-101992976D01*
X74112004Y-101815860D01*
X74200188Y-101652767D01*
X74318372Y-101509908D01*
X74462052Y-101392725D01*
X74625757Y-101305681D01*
X74803251Y-101252093D01*
X74987774Y-101234000D01*
X76504265Y-101234000D01*
X76515468Y-101234078D01*
X76515468Y-101234078D01*
G37*
G36*
X153219711Y-100645824D02*
X153400253Y-100682885D01*
X153570154Y-100754304D01*
X153722950Y-100857366D01*
X153852819Y-100988146D01*
X153954813Y-101141658D01*
X154025042Y-101312049D01*
X154060774Y-101492504D01*
X154060774Y-101492514D01*
X154060840Y-101492848D01*
X154057901Y-101703358D01*
X154057824Y-101703697D01*
X154057824Y-101703700D01*
X154017070Y-101883086D01*
X153942107Y-102051453D01*
X153835869Y-102202056D01*
X153702396Y-102329160D01*
X153546787Y-102427912D01*
X153374954Y-102494563D01*
X153193452Y-102526566D01*
X153009188Y-102522707D01*
X152829176Y-102483128D01*
X152660290Y-102409344D01*
X152508949Y-102304159D01*
X152380918Y-102171579D01*
X152281081Y-102016663D01*
X152213234Y-101845300D01*
X152179962Y-101664018D01*
X152182536Y-101479733D01*
X152220854Y-101299459D01*
X152293461Y-101130056D01*
X152397587Y-100977985D01*
X152529269Y-100849031D01*
X152683487Y-100748114D01*
X152854371Y-100679072D01*
X153035408Y-100644537D01*
X153219711Y-100645824D01*
X153219711Y-100645824D01*
G37*
G36*
X82800152Y-98462264D02*
X82800160Y-98462265D01*
X82802174Y-98462279D01*
X82958458Y-98479809D01*
X83108361Y-98527361D01*
X83246173Y-98603124D01*
X83366645Y-98704211D01*
X83465188Y-98826774D01*
X83538048Y-98966142D01*
X83582450Y-99117008D01*
X83582453Y-99117042D01*
X83582457Y-99117055D01*
X83596706Y-99273623D01*
X83580271Y-99429980D01*
X83580270Y-99429984D01*
X83580265Y-99430029D01*
X83533760Y-99580260D01*
X83458961Y-99718598D01*
X83358717Y-99839772D01*
X83236846Y-99939168D01*
X83097990Y-100012999D01*
X82947437Y-100058454D01*
X82790923Y-100073800D01*
X80281038Y-100073800D01*
X80271848Y-100073736D01*
X80271840Y-100073735D01*
X80269826Y-100073721D01*
X80113542Y-100056191D01*
X79963639Y-100008639D01*
X79825827Y-99932876D01*
X79705355Y-99831789D01*
X79606812Y-99709226D01*
X79533952Y-99569858D01*
X79489550Y-99418992D01*
X79489547Y-99418958D01*
X79489543Y-99418945D01*
X79475294Y-99262377D01*
X79491729Y-99106020D01*
X79491730Y-99106016D01*
X79491735Y-99105971D01*
X79538240Y-98955740D01*
X79613039Y-98817402D01*
X79713283Y-98696228D01*
X79835154Y-98596832D01*
X79974010Y-98523001D01*
X80124563Y-98477546D01*
X80281077Y-98462200D01*
X82790962Y-98462200D01*
X82800152Y-98462264D01*
X82800152Y-98462264D01*
G37*
G36*
X153219711Y-98105824D02*
X153400253Y-98142885D01*
X153570154Y-98214304D01*
X153722950Y-98317366D01*
X153852819Y-98448146D01*
X153954813Y-98601658D01*
X154025042Y-98772049D01*
X154060774Y-98952504D01*
X154060774Y-98952514D01*
X154060840Y-98952848D01*
X154057901Y-99163358D01*
X154057824Y-99163697D01*
X154057824Y-99163700D01*
X154017070Y-99343086D01*
X153942107Y-99511453D01*
X153835869Y-99662056D01*
X153702396Y-99789160D01*
X153546787Y-99887912D01*
X153374954Y-99954563D01*
X153193452Y-99986566D01*
X153009188Y-99982707D01*
X152829176Y-99943128D01*
X152660290Y-99869344D01*
X152508949Y-99764159D01*
X152380918Y-99631579D01*
X152281081Y-99476663D01*
X152213234Y-99305300D01*
X152179962Y-99124018D01*
X152182536Y-98939733D01*
X152220854Y-98759459D01*
X152293461Y-98590056D01*
X152397587Y-98437985D01*
X152529269Y-98309031D01*
X152683487Y-98208114D01*
X152854371Y-98139072D01*
X153035408Y-98104537D01*
X153219711Y-98105824D01*
X153219711Y-98105824D01*
G37*
G36*
X153219711Y-95565824D02*
X153400253Y-95602885D01*
X153570154Y-95674304D01*
X153722950Y-95777366D01*
X153852819Y-95908146D01*
X153954813Y-96061658D01*
X154025042Y-96232049D01*
X154060774Y-96412504D01*
X154060774Y-96412514D01*
X154060840Y-96412848D01*
X154057901Y-96623358D01*
X154057824Y-96623697D01*
X154057824Y-96623700D01*
X154017070Y-96803086D01*
X153942107Y-96971453D01*
X153835869Y-97122056D01*
X153702396Y-97249160D01*
X153546787Y-97347912D01*
X153374954Y-97414563D01*
X153193452Y-97446566D01*
X153009188Y-97442707D01*
X152829176Y-97403128D01*
X152660290Y-97329344D01*
X152508949Y-97224159D01*
X152380918Y-97091579D01*
X152281081Y-96936663D01*
X152213234Y-96765300D01*
X152179962Y-96584018D01*
X152182536Y-96399733D01*
X152220854Y-96219459D01*
X152293461Y-96050056D01*
X152397587Y-95897985D01*
X152529269Y-95769031D01*
X152683487Y-95668114D01*
X152854371Y-95599072D01*
X153035408Y-95564537D01*
X153219711Y-95565824D01*
X153219711Y-95565824D01*
G37*
G36*
X78497980Y-92773729D02*
X78497984Y-92773730D01*
X78498029Y-92773735D01*
X78648260Y-92820240D01*
X78786598Y-92895039D01*
X78907772Y-92995283D01*
X79007168Y-93117154D01*
X79080999Y-93256010D01*
X79126454Y-93406563D01*
X79141800Y-93563077D01*
X79141800Y-96072962D01*
X79141736Y-96082152D01*
X79141735Y-96082160D01*
X79141721Y-96084174D01*
X79124191Y-96240458D01*
X79076639Y-96390361D01*
X79000876Y-96528173D01*
X78899789Y-96648645D01*
X78777226Y-96747188D01*
X78637858Y-96820048D01*
X78486992Y-96864450D01*
X78486958Y-96864453D01*
X78486945Y-96864457D01*
X78330377Y-96878706D01*
X78174020Y-96862271D01*
X78174016Y-96862270D01*
X78173971Y-96862265D01*
X78023740Y-96815760D01*
X77885402Y-96740961D01*
X77764228Y-96640717D01*
X77664832Y-96518846D01*
X77591001Y-96379990D01*
X77545546Y-96229437D01*
X77530200Y-96072923D01*
X77530200Y-93563038D01*
X77530264Y-93553848D01*
X77530265Y-93553840D01*
X77530279Y-93551826D01*
X77547809Y-93395542D01*
X77595361Y-93245639D01*
X77671124Y-93107827D01*
X77772211Y-92987355D01*
X77894774Y-92888812D01*
X78034142Y-92815952D01*
X78185008Y-92771550D01*
X78185042Y-92771547D01*
X78185055Y-92771543D01*
X78341623Y-92757294D01*
X78497980Y-92773729D01*
X78497980Y-92773729D01*
G37*
G36*
X84997980Y-92773729D02*
X84997984Y-92773730D01*
X84998029Y-92773735D01*
X85148260Y-92820240D01*
X85286598Y-92895039D01*
X85407772Y-92995283D01*
X85507168Y-93117154D01*
X85580999Y-93256010D01*
X85626454Y-93406563D01*
X85641800Y-93563077D01*
X85641800Y-96072962D01*
X85641736Y-96082152D01*
X85641735Y-96082160D01*
X85641721Y-96084174D01*
X85624191Y-96240458D01*
X85576639Y-96390361D01*
X85500876Y-96528173D01*
X85399789Y-96648645D01*
X85277226Y-96747188D01*
X85137858Y-96820048D01*
X84986992Y-96864450D01*
X84986958Y-96864453D01*
X84986945Y-96864457D01*
X84830377Y-96878706D01*
X84674020Y-96862271D01*
X84674016Y-96862270D01*
X84673971Y-96862265D01*
X84523740Y-96815760D01*
X84385402Y-96740961D01*
X84264228Y-96640717D01*
X84164832Y-96518846D01*
X84091001Y-96379990D01*
X84045546Y-96229437D01*
X84030200Y-96072923D01*
X84030200Y-93563038D01*
X84030264Y-93553848D01*
X84030265Y-93553840D01*
X84030279Y-93551826D01*
X84047809Y-93395542D01*
X84095361Y-93245639D01*
X84171124Y-93107827D01*
X84272211Y-92987355D01*
X84394774Y-92888812D01*
X84534142Y-92815952D01*
X84685008Y-92771550D01*
X84685042Y-92771547D01*
X84685055Y-92771543D01*
X84841623Y-92757294D01*
X84997980Y-92773729D01*
X84997980Y-92773729D01*
G37*
G36*
X125802537Y-94498731D02*
X126013855Y-94542109D01*
X126212717Y-94625703D01*
X126391559Y-94746333D01*
X126543568Y-94899407D01*
X126662942Y-95079081D01*
X126745148Y-95278524D01*
X126786981Y-95489796D01*
X126786981Y-95489805D01*
X126787047Y-95490139D01*
X126783606Y-95736534D01*
X126783530Y-95736868D01*
X126783530Y-95736880D01*
X126735817Y-95946893D01*
X126648074Y-96143965D01*
X126523726Y-96320240D01*
X126367502Y-96469010D01*
X126185367Y-96584596D01*
X125984243Y-96662608D01*
X125771802Y-96700066D01*
X125556128Y-96695549D01*
X125345434Y-96649225D01*
X125147756Y-96562861D01*
X124970618Y-96439747D01*
X124820763Y-96284567D01*
X124703907Y-96103244D01*
X124624495Y-95902671D01*
X124585552Y-95690488D01*
X124588565Y-95474789D01*
X124633414Y-95263786D01*
X124718398Y-95065506D01*
X124840273Y-94887512D01*
X124994401Y-94736577D01*
X125174908Y-94618457D01*
X125374921Y-94537646D01*
X125586818Y-94497225D01*
X125802537Y-94498731D01*
X125802537Y-94498731D01*
G37*
G36*
X136852537Y-94498731D02*
X137063855Y-94542109D01*
X137262717Y-94625703D01*
X137441559Y-94746333D01*
X137593568Y-94899407D01*
X137712942Y-95079081D01*
X137795148Y-95278524D01*
X137836981Y-95489796D01*
X137836981Y-95489805D01*
X137837047Y-95490139D01*
X137833606Y-95736534D01*
X137833530Y-95736868D01*
X137833530Y-95736880D01*
X137785817Y-95946893D01*
X137698074Y-96143965D01*
X137573726Y-96320240D01*
X137417502Y-96469010D01*
X137235367Y-96584596D01*
X137034243Y-96662608D01*
X136821802Y-96700066D01*
X136606128Y-96695549D01*
X136395434Y-96649225D01*
X136197756Y-96562861D01*
X136020618Y-96439747D01*
X135870763Y-96284567D01*
X135753907Y-96103244D01*
X135674495Y-95902671D01*
X135635552Y-95690488D01*
X135638565Y-95474789D01*
X135683414Y-95263786D01*
X135768398Y-95065506D01*
X135890273Y-94887512D01*
X136044401Y-94736577D01*
X136224908Y-94618457D01*
X136424921Y-94537646D01*
X136636818Y-94497225D01*
X136852537Y-94498731D01*
X136852537Y-94498731D01*
G37*
G36*
X153219711Y-93025824D02*
X153400253Y-93062885D01*
X153570154Y-93134304D01*
X153722950Y-93237366D01*
X153852819Y-93368146D01*
X153954813Y-93521658D01*
X154025042Y-93692049D01*
X154060774Y-93872504D01*
X154060774Y-93872514D01*
X154060840Y-93872848D01*
X154057901Y-94083358D01*
X154057824Y-94083697D01*
X154057824Y-94083700D01*
X154017070Y-94263086D01*
X153942107Y-94431453D01*
X153835869Y-94582056D01*
X153702396Y-94709160D01*
X153546787Y-94807912D01*
X153374954Y-94874563D01*
X153193452Y-94906566D01*
X153009188Y-94902707D01*
X152829176Y-94863128D01*
X152660290Y-94789344D01*
X152508949Y-94684159D01*
X152380918Y-94551579D01*
X152281081Y-94396663D01*
X152213234Y-94225300D01*
X152179962Y-94044018D01*
X152182536Y-93859733D01*
X152220854Y-93679459D01*
X152293461Y-93510056D01*
X152397587Y-93357985D01*
X152529269Y-93229031D01*
X152683487Y-93128114D01*
X152854371Y-93059072D01*
X153035408Y-93024537D01*
X153219711Y-93025824D01*
X153219711Y-93025824D01*
G37*
G36*
X153219711Y-90485824D02*
X153400253Y-90522885D01*
X153570154Y-90594304D01*
X153722950Y-90697366D01*
X153852819Y-90828146D01*
X153954813Y-90981658D01*
X154025042Y-91152049D01*
X154060774Y-91332504D01*
X154060774Y-91332514D01*
X154060840Y-91332848D01*
X154057901Y-91543358D01*
X154057824Y-91543697D01*
X154057824Y-91543700D01*
X154017070Y-91723086D01*
X153942107Y-91891453D01*
X153835869Y-92042056D01*
X153702396Y-92169160D01*
X153546787Y-92267912D01*
X153374954Y-92334563D01*
X153193452Y-92366566D01*
X153009188Y-92362707D01*
X152829176Y-92323128D01*
X152660290Y-92249344D01*
X152508949Y-92144159D01*
X152380918Y-92011579D01*
X152281081Y-91856663D01*
X152213234Y-91685300D01*
X152179962Y-91504018D01*
X152182536Y-91319733D01*
X152220854Y-91139459D01*
X152293461Y-90970056D01*
X152397587Y-90817985D01*
X152529269Y-90689031D01*
X152683487Y-90588114D01*
X152854371Y-90519072D01*
X153035408Y-90484537D01*
X153219711Y-90485824D01*
X153219711Y-90485824D01*
G37*
G36*
X153219711Y-87945824D02*
X153400253Y-87982885D01*
X153570154Y-88054304D01*
X153722950Y-88157366D01*
X153852819Y-88288146D01*
X153954813Y-88441658D01*
X154025042Y-88612049D01*
X154060774Y-88792504D01*
X154060774Y-88792514D01*
X154060840Y-88792848D01*
X154057901Y-89003358D01*
X154057824Y-89003697D01*
X154057824Y-89003700D01*
X154017070Y-89183086D01*
X153942107Y-89351453D01*
X153835869Y-89502056D01*
X153702396Y-89629160D01*
X153546787Y-89727912D01*
X153374954Y-89794563D01*
X153193452Y-89826566D01*
X153009188Y-89822707D01*
X152829176Y-89783128D01*
X152660290Y-89709344D01*
X152508949Y-89604159D01*
X152380918Y-89471579D01*
X152281081Y-89316663D01*
X152213234Y-89145300D01*
X152179962Y-88964018D01*
X152182536Y-88779733D01*
X152220854Y-88599459D01*
X152293461Y-88430056D01*
X152397587Y-88277985D01*
X152529269Y-88149031D01*
X152683487Y-88048114D01*
X152854371Y-87979072D01*
X153035408Y-87944537D01*
X153219711Y-87945824D01*
X153219711Y-87945824D01*
G37*
G36*
X153219711Y-85405824D02*
X153400253Y-85442885D01*
X153570154Y-85514304D01*
X153722950Y-85617366D01*
X153852819Y-85748146D01*
X153954813Y-85901658D01*
X154025042Y-86072049D01*
X154060774Y-86252504D01*
X154060774Y-86252514D01*
X154060840Y-86252848D01*
X154057901Y-86463358D01*
X154057824Y-86463697D01*
X154057824Y-86463700D01*
X154017070Y-86643086D01*
X153942107Y-86811453D01*
X153835869Y-86962056D01*
X153702396Y-87089160D01*
X153546787Y-87187912D01*
X153374954Y-87254563D01*
X153193452Y-87286566D01*
X153009188Y-87282707D01*
X152829176Y-87243128D01*
X152660290Y-87169344D01*
X152508949Y-87064159D01*
X152380918Y-86931579D01*
X152281081Y-86776663D01*
X152213234Y-86605300D01*
X152179962Y-86424018D01*
X152182536Y-86239733D01*
X152220854Y-86059459D01*
X152293461Y-85890056D01*
X152397587Y-85737985D01*
X152529269Y-85609031D01*
X152683487Y-85508114D01*
X152854371Y-85439072D01*
X153035408Y-85404537D01*
X153219711Y-85405824D01*
X153219711Y-85405824D01*
G37*
G36*
X131306537Y-84498731D02*
X131517855Y-84542109D01*
X131716717Y-84625703D01*
X131895559Y-84746333D01*
X132047568Y-84899407D01*
X132166942Y-85079081D01*
X132249148Y-85278524D01*
X132290981Y-85489796D01*
X132290981Y-85489805D01*
X132291047Y-85490139D01*
X132287606Y-85736534D01*
X132287530Y-85736868D01*
X132287530Y-85736880D01*
X132239817Y-85946893D01*
X132152074Y-86143965D01*
X132027726Y-86320240D01*
X131871502Y-86469010D01*
X131689367Y-86584596D01*
X131488243Y-86662608D01*
X131275802Y-86700066D01*
X131060128Y-86695549D01*
X130849434Y-86649225D01*
X130651756Y-86562861D01*
X130474618Y-86439747D01*
X130324763Y-86284567D01*
X130207907Y-86103244D01*
X130128495Y-85902671D01*
X130089552Y-85690488D01*
X130092565Y-85474789D01*
X130137414Y-85263786D01*
X130222398Y-85065506D01*
X130344273Y-84887512D01*
X130498401Y-84736577D01*
X130678908Y-84618457D01*
X130878921Y-84537646D01*
X131090818Y-84497225D01*
X131306537Y-84498731D01*
X131306537Y-84498731D01*
G37*
G36*
X153219711Y-82865824D02*
X153400253Y-82902885D01*
X153570154Y-82974304D01*
X153722950Y-83077366D01*
X153852819Y-83208146D01*
X153954813Y-83361658D01*
X154025042Y-83532049D01*
X154060774Y-83712504D01*
X154060774Y-83712514D01*
X154060840Y-83712848D01*
X154057901Y-83923358D01*
X154057824Y-83923697D01*
X154057824Y-83923700D01*
X154017070Y-84103086D01*
X153942107Y-84271453D01*
X153835869Y-84422056D01*
X153702396Y-84549160D01*
X153546787Y-84647912D01*
X153374954Y-84714563D01*
X153193452Y-84746566D01*
X153009188Y-84742707D01*
X152829176Y-84703128D01*
X152660290Y-84629344D01*
X152508949Y-84524159D01*
X152380918Y-84391579D01*
X152281081Y-84236663D01*
X152213234Y-84065300D01*
X152179962Y-83884018D01*
X152182536Y-83699733D01*
X152220854Y-83519459D01*
X152293461Y-83350056D01*
X152397587Y-83197985D01*
X152529269Y-83069031D01*
X152683487Y-82968114D01*
X152854371Y-82899072D01*
X153035408Y-82864537D01*
X153219711Y-82865824D01*
X153219711Y-82865824D01*
G37*
G36*
X78188324Y-82978464D02*
X78322799Y-83006068D01*
X78449347Y-83059264D01*
X78563159Y-83136031D01*
X78659889Y-83233438D01*
X78735855Y-83347778D01*
X78788168Y-83474696D01*
X78814764Y-83609017D01*
X78814764Y-83609027D01*
X78814830Y-83609361D01*
X78812641Y-83766158D01*
X78812564Y-83766496D01*
X78812564Y-83766504D01*
X78782230Y-83900022D01*
X78726394Y-84025433D01*
X78647263Y-84137608D01*
X78547846Y-84232281D01*
X78431943Y-84305835D01*
X78303956Y-84355478D01*
X78168765Y-84379316D01*
X78031518Y-84376442D01*
X77897440Y-84346962D01*
X77771644Y-84292003D01*
X77658920Y-84213658D01*
X77563557Y-84114907D01*
X77489195Y-83999520D01*
X77438659Y-83871882D01*
X77413878Y-83736855D01*
X77415795Y-83599592D01*
X77444335Y-83465319D01*
X77498415Y-83339142D01*
X77575977Y-83225866D01*
X77674052Y-83129822D01*
X77788923Y-83054653D01*
X77916204Y-83003228D01*
X78051047Y-82977506D01*
X78188324Y-82978464D01*
X78188324Y-82978464D01*
G37*
G36*
X153219711Y-80325824D02*
X153400253Y-80362885D01*
X153570154Y-80434304D01*
X153722950Y-80537366D01*
X153852819Y-80668146D01*
X153954813Y-80821658D01*
X154025042Y-80992049D01*
X154060774Y-81172504D01*
X154060774Y-81172514D01*
X154060840Y-81172848D01*
X154057901Y-81383358D01*
X154057824Y-81383697D01*
X154057824Y-81383700D01*
X154017070Y-81563086D01*
X153942107Y-81731453D01*
X153835869Y-81882056D01*
X153702396Y-82009160D01*
X153546787Y-82107912D01*
X153374954Y-82174563D01*
X153193452Y-82206566D01*
X153009188Y-82202707D01*
X152829176Y-82163128D01*
X152660290Y-82089344D01*
X152508949Y-81984159D01*
X152380918Y-81851579D01*
X152281081Y-81696663D01*
X152213234Y-81525300D01*
X152179962Y-81344018D01*
X152182536Y-81159733D01*
X152220854Y-80979459D01*
X152293461Y-80810056D01*
X152397587Y-80657985D01*
X152529269Y-80529031D01*
X152683487Y-80428114D01*
X152854371Y-80359072D01*
X153035408Y-80324537D01*
X153219711Y-80325824D01*
X153219711Y-80325824D01*
G37*
G36*
X153219711Y-77785824D02*
X153400253Y-77822885D01*
X153570154Y-77894304D01*
X153722950Y-77997366D01*
X153852819Y-78128146D01*
X153954813Y-78281658D01*
X154025042Y-78452049D01*
X154060774Y-78632504D01*
X154060774Y-78632514D01*
X154060840Y-78632848D01*
X154057901Y-78843358D01*
X154057824Y-78843697D01*
X154057824Y-78843700D01*
X154017070Y-79023086D01*
X153942107Y-79191453D01*
X153835869Y-79342056D01*
X153702396Y-79469160D01*
X153546787Y-79567912D01*
X153374954Y-79634563D01*
X153193452Y-79666566D01*
X153009188Y-79662707D01*
X152829176Y-79623128D01*
X152660290Y-79549344D01*
X152508949Y-79444159D01*
X152380918Y-79311579D01*
X152281081Y-79156663D01*
X152213234Y-78985300D01*
X152179962Y-78804018D01*
X152182536Y-78619733D01*
X152220854Y-78439459D01*
X152293461Y-78270056D01*
X152397587Y-78117985D01*
X152529269Y-77989031D01*
X152683487Y-77888114D01*
X152854371Y-77819072D01*
X153035408Y-77784537D01*
X153219711Y-77785824D01*
X153219711Y-77785824D01*
G37*
G36*
X153219711Y-75245824D02*
X153400253Y-75282885D01*
X153570154Y-75354304D01*
X153722950Y-75457366D01*
X153852819Y-75588146D01*
X153954813Y-75741658D01*
X154025042Y-75912049D01*
X154060774Y-76092504D01*
X154060774Y-76092514D01*
X154060840Y-76092848D01*
X154057901Y-76303358D01*
X154057824Y-76303697D01*
X154057824Y-76303700D01*
X154017070Y-76483086D01*
X153942107Y-76651453D01*
X153835869Y-76802056D01*
X153702396Y-76929160D01*
X153546787Y-77027912D01*
X153374954Y-77094563D01*
X153193452Y-77126566D01*
X153009188Y-77122707D01*
X152829176Y-77083128D01*
X152660290Y-77009344D01*
X152508949Y-76904159D01*
X152380918Y-76771579D01*
X152281081Y-76616663D01*
X152213234Y-76445300D01*
X152179962Y-76264018D01*
X152182536Y-76079733D01*
X152220854Y-75899459D01*
X152293461Y-75730056D01*
X152397587Y-75577985D01*
X152529269Y-75449031D01*
X152683487Y-75348114D01*
X152854371Y-75279072D01*
X153035408Y-75244537D01*
X153219711Y-75245824D01*
X153219711Y-75245824D01*
G37*
G36*
X136852537Y-74498731D02*
X137063855Y-74542109D01*
X137262717Y-74625703D01*
X137441559Y-74746333D01*
X137593568Y-74899407D01*
X137712942Y-75079081D01*
X137795148Y-75278524D01*
X137836981Y-75489796D01*
X137836981Y-75489805D01*
X137837047Y-75490139D01*
X137833606Y-75736534D01*
X137833530Y-75736868D01*
X137833530Y-75736880D01*
X137785817Y-75946893D01*
X137698074Y-76143965D01*
X137573726Y-76320240D01*
X137417502Y-76469010D01*
X137235367Y-76584596D01*
X137034243Y-76662608D01*
X136821802Y-76700066D01*
X136606128Y-76695549D01*
X136395434Y-76649225D01*
X136197756Y-76562861D01*
X136020618Y-76439747D01*
X135870763Y-76284567D01*
X135753907Y-76103244D01*
X135674495Y-75902671D01*
X135635552Y-75690488D01*
X135638565Y-75474789D01*
X135683414Y-75263786D01*
X135768398Y-75065506D01*
X135890273Y-74887512D01*
X136044401Y-74736577D01*
X136224908Y-74618457D01*
X136424921Y-74537646D01*
X136636818Y-74497225D01*
X136852537Y-74498731D01*
X136852537Y-74498731D01*
G37*
G36*
X125802537Y-74498731D02*
X126013855Y-74542109D01*
X126212717Y-74625703D01*
X126391559Y-74746333D01*
X126543568Y-74899407D01*
X126662942Y-75079081D01*
X126745148Y-75278524D01*
X126786981Y-75489796D01*
X126786981Y-75489805D01*
X126787047Y-75490139D01*
X126783606Y-75736534D01*
X126783530Y-75736868D01*
X126783530Y-75736880D01*
X126735817Y-75946893D01*
X126648074Y-76143965D01*
X126523726Y-76320240D01*
X126367502Y-76469010D01*
X126185367Y-76584596D01*
X125984243Y-76662608D01*
X125771802Y-76700066D01*
X125556128Y-76695549D01*
X125345434Y-76649225D01*
X125147756Y-76562861D01*
X124970618Y-76439747D01*
X124820763Y-76284567D01*
X124703907Y-76103244D01*
X124624495Y-75902671D01*
X124585552Y-75690488D01*
X124588565Y-75474789D01*
X124633414Y-75263786D01*
X124718398Y-75065506D01*
X124840273Y-74887512D01*
X124994401Y-74736577D01*
X125174908Y-74618457D01*
X125374921Y-74537646D01*
X125586818Y-74497225D01*
X125802537Y-74498731D01*
X125802537Y-74498731D01*
G37*
G36*
X78188324Y-74977464D02*
X78322799Y-75005068D01*
X78449347Y-75058264D01*
X78563159Y-75135031D01*
X78659889Y-75232438D01*
X78735855Y-75346778D01*
X78788168Y-75473696D01*
X78814764Y-75608017D01*
X78814764Y-75608027D01*
X78814830Y-75608361D01*
X78812641Y-75765158D01*
X78812564Y-75765496D01*
X78812564Y-75765504D01*
X78782230Y-75899022D01*
X78726394Y-76024433D01*
X78647263Y-76136608D01*
X78547846Y-76231281D01*
X78431943Y-76304835D01*
X78303956Y-76354478D01*
X78168765Y-76378316D01*
X78031518Y-76375442D01*
X77897440Y-76345962D01*
X77771644Y-76291003D01*
X77658920Y-76212658D01*
X77563557Y-76113907D01*
X77489195Y-75998520D01*
X77438659Y-75870882D01*
X77413878Y-75735855D01*
X77415795Y-75598592D01*
X77444335Y-75464319D01*
X77498415Y-75338142D01*
X77575977Y-75224866D01*
X77674052Y-75128822D01*
X77788923Y-75053653D01*
X77916204Y-75002228D01*
X78051047Y-74976506D01*
X78188324Y-74977464D01*
X78188324Y-74977464D01*
G37*
G36*
X153219711Y-72705824D02*
X153400253Y-72742885D01*
X153570154Y-72814304D01*
X153722950Y-72917366D01*
X153852819Y-73048146D01*
X153954813Y-73201658D01*
X154025042Y-73372049D01*
X154060774Y-73552504D01*
X154060774Y-73552514D01*
X154060840Y-73552848D01*
X154057901Y-73763358D01*
X154057824Y-73763697D01*
X154057824Y-73763700D01*
X154017070Y-73943086D01*
X153942107Y-74111453D01*
X153835869Y-74262056D01*
X153702396Y-74389160D01*
X153546787Y-74487912D01*
X153374954Y-74554563D01*
X153193452Y-74586566D01*
X153009188Y-74582707D01*
X152829176Y-74543128D01*
X152660290Y-74469344D01*
X152508949Y-74364159D01*
X152380918Y-74231579D01*
X152281081Y-74076663D01*
X152213234Y-73905300D01*
X152179962Y-73724018D01*
X152182536Y-73539733D01*
X152220854Y-73359459D01*
X152293461Y-73190056D01*
X152397587Y-73037985D01*
X152529269Y-72909031D01*
X152683487Y-72808114D01*
X152854371Y-72739072D01*
X153035408Y-72704537D01*
X153219711Y-72705824D01*
X153219711Y-72705824D01*
G37*
G36*
X153219711Y-70165824D02*
X153400253Y-70202885D01*
X153570154Y-70274304D01*
X153722950Y-70377366D01*
X153852819Y-70508146D01*
X153954813Y-70661658D01*
X154025042Y-70832049D01*
X154060774Y-71012504D01*
X154060774Y-71012514D01*
X154060840Y-71012848D01*
X154057901Y-71223358D01*
X154057824Y-71223697D01*
X154057824Y-71223700D01*
X154017070Y-71403086D01*
X153942107Y-71571453D01*
X153835869Y-71722056D01*
X153702396Y-71849160D01*
X153546787Y-71947912D01*
X153374954Y-72014563D01*
X153193452Y-72046566D01*
X153009188Y-72042707D01*
X152829176Y-72003128D01*
X152660290Y-71929344D01*
X152508949Y-71824159D01*
X152380918Y-71691579D01*
X152281081Y-71536663D01*
X152213234Y-71365300D01*
X152179962Y-71184018D01*
X152182536Y-70999733D01*
X152220854Y-70819459D01*
X152293461Y-70650056D01*
X152397587Y-70497985D01*
X152529269Y-70369031D01*
X152683487Y-70268114D01*
X152854371Y-70199072D01*
X153035408Y-70164537D01*
X153219711Y-70165824D01*
X153219711Y-70165824D01*
G37*
G36*
X168046299Y-67384964D02*
X168324853Y-67442143D01*
X168586991Y-67552336D01*
X168822737Y-67711348D01*
X169023109Y-67913124D01*
X169180473Y-68149974D01*
X169288830Y-68412872D01*
X169343996Y-68691476D01*
X169343996Y-68691486D01*
X169344062Y-68691820D01*
X169339527Y-69016613D01*
X169339451Y-69016947D01*
X169339451Y-69016959D01*
X169276531Y-69293905D01*
X169160870Y-69553682D01*
X168996957Y-69786044D01*
X168791027Y-69982149D01*
X168550938Y-70134513D01*
X168285821Y-70237345D01*
X168005782Y-70286724D01*
X167721486Y-70280769D01*
X167443753Y-70219706D01*
X167183180Y-70105864D01*
X166949678Y-69943576D01*
X166752143Y-69739022D01*
X166598105Y-69500003D01*
X166493425Y-69235611D01*
X166442091Y-68955917D01*
X166446062Y-68671587D01*
X166505183Y-68393444D01*
X166617206Y-68132076D01*
X166777859Y-67897447D01*
X166981028Y-67698489D01*
X167218969Y-67542785D01*
X167482624Y-67436261D01*
X167761943Y-67382978D01*
X168046299Y-67384964D01*
X168046299Y-67384964D01*
G37*
G36*
X162966299Y-67384964D02*
X163244853Y-67442143D01*
X163506991Y-67552336D01*
X163742737Y-67711348D01*
X163943109Y-67913124D01*
X164100473Y-68149974D01*
X164208830Y-68412872D01*
X164263996Y-68691476D01*
X164263996Y-68691486D01*
X164264062Y-68691820D01*
X164259527Y-69016613D01*
X164259451Y-69016947D01*
X164259451Y-69016959D01*
X164196531Y-69293905D01*
X164080870Y-69553682D01*
X163916957Y-69786044D01*
X163711027Y-69982149D01*
X163470938Y-70134513D01*
X163205821Y-70237345D01*
X162925782Y-70286724D01*
X162641486Y-70280769D01*
X162363753Y-70219706D01*
X162103180Y-70105864D01*
X161869678Y-69943576D01*
X161672143Y-69739022D01*
X161518105Y-69500003D01*
X161413425Y-69235611D01*
X161362091Y-68955917D01*
X161366062Y-68671587D01*
X161425183Y-68393444D01*
X161537206Y-68132076D01*
X161697859Y-67897447D01*
X161901028Y-67698489D01*
X162138969Y-67542785D01*
X162402624Y-67436261D01*
X162681943Y-67382978D01*
X162966299Y-67384964D01*
X162966299Y-67384964D01*
G37*
G36*
X82825061Y-65343198D02*
X83170852Y-65414178D01*
X83496265Y-65550969D01*
X83788918Y-65748366D01*
X84037650Y-65998840D01*
X84232998Y-66292862D01*
X84367514Y-66619223D01*
X84436011Y-66965157D01*
X84436011Y-66965167D01*
X84436077Y-66965501D01*
X84430447Y-67368691D01*
X84430371Y-67369025D01*
X84430371Y-67369037D01*
X84352244Y-67712916D01*
X84208665Y-68035398D01*
X84005187Y-68323848D01*
X83749551Y-68567286D01*
X83451508Y-68756429D01*
X83122398Y-68884084D01*
X82774765Y-68945380D01*
X82421844Y-68937988D01*
X82077074Y-68862185D01*
X81753603Y-68720864D01*
X81463739Y-68519403D01*
X81218523Y-68265475D01*
X81027304Y-67968761D01*
X80897356Y-67640550D01*
X80833632Y-67293346D01*
X80838561Y-66940384D01*
X80911952Y-66595102D01*
X81051015Y-66270647D01*
X81250447Y-65979383D01*
X81502656Y-65732401D01*
X81798031Y-65539113D01*
X82125326Y-65406877D01*
X82472068Y-65340733D01*
X82825061Y-65343198D01*
X82825061Y-65343198D01*
G37*
G36*
X165506299Y-64844964D02*
X165784853Y-64902143D01*
X166046991Y-65012336D01*
X166282737Y-65171348D01*
X166483109Y-65373124D01*
X166640473Y-65609974D01*
X166748830Y-65872872D01*
X166803996Y-66151476D01*
X166803996Y-66151486D01*
X166804062Y-66151820D01*
X166799527Y-66476613D01*
X166799451Y-66476947D01*
X166799451Y-66476959D01*
X166736531Y-66753905D01*
X166620870Y-67013682D01*
X166456957Y-67246044D01*
X166251027Y-67442149D01*
X166010938Y-67594513D01*
X165745821Y-67697345D01*
X165465782Y-67746724D01*
X165181486Y-67740769D01*
X164903753Y-67679706D01*
X164643180Y-67565864D01*
X164409678Y-67403576D01*
X164212143Y-67199022D01*
X164058105Y-66960003D01*
X163953425Y-66695611D01*
X163902091Y-66415917D01*
X163906062Y-66131587D01*
X163965183Y-65853444D01*
X164077206Y-65592076D01*
X164237859Y-65357447D01*
X164441028Y-65158489D01*
X164678969Y-65002785D01*
X164942624Y-64896261D01*
X165221943Y-64842978D01*
X165506299Y-64844964D01*
X165506299Y-64844964D01*
G37*
G36*
X86115468Y-63622078D02*
X86115476Y-63622079D01*
X86117490Y-63622093D01*
X86301742Y-63642760D01*
X86478471Y-63698821D01*
X86640945Y-63788142D01*
X86782975Y-63907320D01*
X86899152Y-64051815D01*
X86985051Y-64216124D01*
X87037399Y-64393988D01*
X87037402Y-64394022D01*
X87037406Y-64394035D01*
X87054206Y-64578629D01*
X87034829Y-64762976D01*
X87034826Y-64762986D01*
X87034822Y-64763024D01*
X86979996Y-64940140D01*
X86891812Y-65103233D01*
X86773628Y-65246092D01*
X86629948Y-65363275D01*
X86466243Y-65450319D01*
X86288749Y-65503907D01*
X86104226Y-65522000D01*
X84587735Y-65522000D01*
X84576532Y-65521922D01*
X84576524Y-65521921D01*
X84574510Y-65521907D01*
X84390258Y-65501240D01*
X84213529Y-65445179D01*
X84051055Y-65355858D01*
X83909025Y-65236680D01*
X83792848Y-65092185D01*
X83706949Y-64927876D01*
X83654601Y-64750012D01*
X83654598Y-64749978D01*
X83654594Y-64749965D01*
X83637794Y-64565371D01*
X83657171Y-64381024D01*
X83657174Y-64381014D01*
X83657178Y-64380976D01*
X83712004Y-64203860D01*
X83800188Y-64040767D01*
X83918372Y-63897908D01*
X84062052Y-63780725D01*
X84225757Y-63693681D01*
X84403251Y-63640093D01*
X84587774Y-63622000D01*
X86104265Y-63622000D01*
X86115468Y-63622078D01*
X86115468Y-63622078D01*
G37*
G36*
X168046299Y-62304964D02*
X168324853Y-62362143D01*
X168586991Y-62472336D01*
X168822737Y-62631348D01*
X169023109Y-62833124D01*
X169180473Y-63069974D01*
X169288830Y-63332872D01*
X169343996Y-63611476D01*
X169343996Y-63611486D01*
X169344062Y-63611820D01*
X169339527Y-63936613D01*
X169339451Y-63936947D01*
X169339451Y-63936959D01*
X169276531Y-64213905D01*
X169160870Y-64473682D01*
X168996957Y-64706044D01*
X168791027Y-64902149D01*
X168550938Y-65054513D01*
X168285821Y-65157345D01*
X168005782Y-65206724D01*
X167721486Y-65200769D01*
X167443753Y-65139706D01*
X167183180Y-65025864D01*
X166949678Y-64863576D01*
X166752143Y-64659022D01*
X166598105Y-64420003D01*
X166493425Y-64155611D01*
X166442091Y-63875917D01*
X166446062Y-63591587D01*
X166505183Y-63313444D01*
X166617206Y-63052076D01*
X166777859Y-62817447D01*
X166981028Y-62618489D01*
X167218969Y-62462785D01*
X167482624Y-62356261D01*
X167761943Y-62302978D01*
X168046299Y-62304964D01*
X168046299Y-62304964D01*
G37*
G36*
X162966299Y-62304964D02*
X163244853Y-62362143D01*
X163506991Y-62472336D01*
X163742737Y-62631348D01*
X163943109Y-62833124D01*
X164100473Y-63069974D01*
X164208830Y-63332872D01*
X164263996Y-63611476D01*
X164263996Y-63611486D01*
X164264062Y-63611820D01*
X164259527Y-63936613D01*
X164259451Y-63936947D01*
X164259451Y-63936959D01*
X164196531Y-64213905D01*
X164080870Y-64473682D01*
X163916957Y-64706044D01*
X163711027Y-64902149D01*
X163470938Y-65054513D01*
X163205821Y-65157345D01*
X162925782Y-65206724D01*
X162641486Y-65200769D01*
X162363753Y-65139706D01*
X162103180Y-65025864D01*
X161869678Y-64863576D01*
X161672143Y-64659022D01*
X161518105Y-64420003D01*
X161413425Y-64155611D01*
X161362091Y-63875917D01*
X161366062Y-63591587D01*
X161425183Y-63313444D01*
X161537206Y-63052076D01*
X161697859Y-62817447D01*
X161901028Y-62618489D01*
X162138969Y-62462785D01*
X162402624Y-62356261D01*
X162681943Y-62302978D01*
X162966299Y-62304964D01*
X162966299Y-62304964D01*
G37*
G36*
X86115468Y-59122078D02*
X86115476Y-59122079D01*
X86117490Y-59122093D01*
X86301742Y-59142760D01*
X86478471Y-59198821D01*
X86640945Y-59288142D01*
X86782975Y-59407320D01*
X86899152Y-59551815D01*
X86985051Y-59716124D01*
X87037399Y-59893988D01*
X87037402Y-59894022D01*
X87037406Y-59894035D01*
X87054206Y-60078629D01*
X87034829Y-60262976D01*
X87034826Y-60262986D01*
X87034822Y-60263024D01*
X86979996Y-60440140D01*
X86891812Y-60603233D01*
X86773628Y-60746092D01*
X86629948Y-60863275D01*
X86466243Y-60950319D01*
X86288749Y-61003907D01*
X86104226Y-61022000D01*
X86102027Y-61022000D01*
X86099589Y-61022239D01*
X86085919Y-61025568D01*
X86073718Y-61032574D01*
X86063951Y-61042702D01*
X86057393Y-61055149D01*
X86054562Y-61068931D01*
X86055683Y-61082956D01*
X86060667Y-61096114D01*
X86069119Y-61107362D01*
X86080370Y-61115810D01*
X86093529Y-61120789D01*
X86104121Y-61121999D01*
X86115468Y-61122078D01*
X86115476Y-61122079D01*
X86117490Y-61122093D01*
X86301742Y-61142760D01*
X86478471Y-61198821D01*
X86640945Y-61288142D01*
X86782975Y-61407320D01*
X86899152Y-61551815D01*
X86985051Y-61716124D01*
X87037399Y-61893988D01*
X87037402Y-61894022D01*
X87037406Y-61894035D01*
X87054206Y-62078629D01*
X87034829Y-62262976D01*
X87034826Y-62262986D01*
X87034822Y-62263024D01*
X86979996Y-62440140D01*
X86891812Y-62603233D01*
X86773628Y-62746092D01*
X86629948Y-62863275D01*
X86466243Y-62950319D01*
X86288749Y-63003907D01*
X86104226Y-63022000D01*
X84587735Y-63022000D01*
X84576532Y-63021922D01*
X84576524Y-63021921D01*
X84574510Y-63021907D01*
X84390258Y-63001240D01*
X84213529Y-62945179D01*
X84051055Y-62855858D01*
X83909025Y-62736680D01*
X83792848Y-62592185D01*
X83706949Y-62427876D01*
X83654601Y-62250012D01*
X83654598Y-62249978D01*
X83654594Y-62249965D01*
X83637794Y-62065371D01*
X83657171Y-61881024D01*
X83657174Y-61881014D01*
X83657178Y-61880976D01*
X83712004Y-61703860D01*
X83800188Y-61540767D01*
X83918372Y-61397908D01*
X84062052Y-61280725D01*
X84225757Y-61193681D01*
X84403251Y-61140093D01*
X84587774Y-61122000D01*
X84589973Y-61122000D01*
X84592411Y-61121761D01*
X84606081Y-61118432D01*
X84618282Y-61111426D01*
X84628049Y-61101298D01*
X84634607Y-61088851D01*
X84637438Y-61075069D01*
X84636317Y-61061044D01*
X84631333Y-61047886D01*
X84622881Y-61036638D01*
X84611630Y-61028190D01*
X84598471Y-61023211D01*
X84587879Y-61022001D01*
X84576532Y-61021922D01*
X84576524Y-61021921D01*
X84574510Y-61021907D01*
X84390258Y-61001240D01*
X84213529Y-60945179D01*
X84051055Y-60855858D01*
X83909025Y-60736680D01*
X83792848Y-60592185D01*
X83706949Y-60427876D01*
X83654601Y-60250012D01*
X83654598Y-60249978D01*
X83654594Y-60249965D01*
X83637794Y-60065371D01*
X83657171Y-59881024D01*
X83657174Y-59881014D01*
X83657178Y-59880976D01*
X83712004Y-59703860D01*
X83800188Y-59540767D01*
X83918372Y-59397908D01*
X84062052Y-59280725D01*
X84225757Y-59193681D01*
X84403251Y-59140093D01*
X84587774Y-59122000D01*
X86104265Y-59122000D01*
X86115468Y-59122078D01*
X86115468Y-59122078D01*
G37*
G36*
X133194711Y-58242824D02*
X133375253Y-58279885D01*
X133545154Y-58351304D01*
X133697950Y-58454366D01*
X133827819Y-58585146D01*
X133929813Y-58738658D01*
X134000042Y-58909049D01*
X134035774Y-59089504D01*
X134035774Y-59089514D01*
X134035840Y-59089848D01*
X134032901Y-59300358D01*
X134032824Y-59300697D01*
X134032824Y-59300700D01*
X133992070Y-59480086D01*
X133917107Y-59648453D01*
X133810869Y-59799056D01*
X133677396Y-59926160D01*
X133521787Y-60024912D01*
X133349954Y-60091563D01*
X133168452Y-60123566D01*
X132984188Y-60119707D01*
X132804176Y-60080128D01*
X132635290Y-60006344D01*
X132483949Y-59901159D01*
X132355918Y-59768579D01*
X132256081Y-59613663D01*
X132188234Y-59442300D01*
X132154962Y-59261018D01*
X132157536Y-59076733D01*
X132195854Y-58896459D01*
X132268461Y-58727056D01*
X132372587Y-58574985D01*
X132504269Y-58446031D01*
X132658487Y-58345114D01*
X132829371Y-58276072D01*
X133010408Y-58241537D01*
X133194711Y-58242824D01*
X133194711Y-58242824D01*
G37*
G36*
X130654711Y-58242824D02*
X130835253Y-58279885D01*
X131005154Y-58351304D01*
X131157950Y-58454366D01*
X131287819Y-58585146D01*
X131389813Y-58738658D01*
X131460042Y-58909049D01*
X131495774Y-59089504D01*
X131495774Y-59089514D01*
X131495840Y-59089848D01*
X131492901Y-59300358D01*
X131492824Y-59300697D01*
X131492824Y-59300700D01*
X131452070Y-59480086D01*
X131377107Y-59648453D01*
X131270869Y-59799056D01*
X131137396Y-59926160D01*
X130981787Y-60024912D01*
X130809954Y-60091563D01*
X130628452Y-60123566D01*
X130444188Y-60119707D01*
X130264176Y-60080128D01*
X130095290Y-60006344D01*
X129943949Y-59901159D01*
X129815918Y-59768579D01*
X129716081Y-59613663D01*
X129648234Y-59442300D01*
X129614962Y-59261018D01*
X129617536Y-59076733D01*
X129655854Y-58896459D01*
X129728461Y-58727056D01*
X129832587Y-58574985D01*
X129964269Y-58446031D01*
X130118487Y-58345114D01*
X130289371Y-58276072D01*
X130470408Y-58241537D01*
X130654711Y-58242824D01*
X130654711Y-58242824D01*
G37*
G36*
X128114711Y-58242824D02*
X128295253Y-58279885D01*
X128465154Y-58351304D01*
X128617950Y-58454366D01*
X128747819Y-58585146D01*
X128849813Y-58738658D01*
X128920042Y-58909049D01*
X128955774Y-59089504D01*
X128955774Y-59089514D01*
X128955840Y-59089848D01*
X128952901Y-59300358D01*
X128952824Y-59300697D01*
X128952824Y-59300700D01*
X128912070Y-59480086D01*
X128837107Y-59648453D01*
X128730869Y-59799056D01*
X128597396Y-59926160D01*
X128441787Y-60024912D01*
X128269954Y-60091563D01*
X128088452Y-60123566D01*
X127904188Y-60119707D01*
X127724176Y-60080128D01*
X127555290Y-60006344D01*
X127403949Y-59901159D01*
X127275918Y-59768579D01*
X127176081Y-59613663D01*
X127108234Y-59442300D01*
X127074962Y-59261018D01*
X127077536Y-59076733D01*
X127115854Y-58896459D01*
X127188461Y-58727056D01*
X127292587Y-58574985D01*
X127424269Y-58446031D01*
X127578487Y-58345114D01*
X127749371Y-58276072D01*
X127930408Y-58241537D01*
X128114711Y-58242824D01*
X128114711Y-58242824D01*
G37*
G36*
X125574711Y-58242824D02*
X125755253Y-58279885D01*
X125925154Y-58351304D01*
X126077950Y-58454366D01*
X126207819Y-58585146D01*
X126309813Y-58738658D01*
X126380042Y-58909049D01*
X126415774Y-59089504D01*
X126415774Y-59089514D01*
X126415840Y-59089848D01*
X126412901Y-59300358D01*
X126412824Y-59300697D01*
X126412824Y-59300700D01*
X126372070Y-59480086D01*
X126297107Y-59648453D01*
X126190869Y-59799056D01*
X126057396Y-59926160D01*
X125901787Y-60024912D01*
X125729954Y-60091563D01*
X125548452Y-60123566D01*
X125364188Y-60119707D01*
X125184176Y-60080128D01*
X125015290Y-60006344D01*
X124863949Y-59901159D01*
X124735918Y-59768579D01*
X124636081Y-59613663D01*
X124568234Y-59442300D01*
X124534962Y-59261018D01*
X124537536Y-59076733D01*
X124575854Y-58896459D01*
X124648461Y-58727056D01*
X124752587Y-58574985D01*
X124884269Y-58446031D01*
X125038487Y-58345114D01*
X125209371Y-58276072D01*
X125390408Y-58241537D01*
X125574711Y-58242824D01*
X125574711Y-58242824D01*
G37*
G36*
X123034711Y-58242824D02*
X123215253Y-58279885D01*
X123385154Y-58351304D01*
X123537950Y-58454366D01*
X123667819Y-58585146D01*
X123769813Y-58738658D01*
X123840042Y-58909049D01*
X123875774Y-59089504D01*
X123875774Y-59089514D01*
X123875840Y-59089848D01*
X123872901Y-59300358D01*
X123872824Y-59300697D01*
X123872824Y-59300700D01*
X123832070Y-59480086D01*
X123757107Y-59648453D01*
X123650869Y-59799056D01*
X123517396Y-59926160D01*
X123361787Y-60024912D01*
X123189954Y-60091563D01*
X123008452Y-60123566D01*
X122824188Y-60119707D01*
X122644176Y-60080128D01*
X122475290Y-60006344D01*
X122323949Y-59901159D01*
X122195918Y-59768579D01*
X122096081Y-59613663D01*
X122028234Y-59442300D01*
X121994962Y-59261018D01*
X121997536Y-59076733D01*
X122035854Y-58896459D01*
X122108461Y-58727056D01*
X122212587Y-58574985D01*
X122344269Y-58446031D01*
X122498487Y-58345114D01*
X122669371Y-58276072D01*
X122850408Y-58241537D01*
X123034711Y-58242824D01*
X123034711Y-58242824D01*
G37*
G36*
X120494711Y-58242824D02*
X120675253Y-58279885D01*
X120845154Y-58351304D01*
X120997950Y-58454366D01*
X121127819Y-58585146D01*
X121229813Y-58738658D01*
X121300042Y-58909049D01*
X121335774Y-59089504D01*
X121335774Y-59089514D01*
X121335840Y-59089848D01*
X121332901Y-59300358D01*
X121332824Y-59300697D01*
X121332824Y-59300700D01*
X121292070Y-59480086D01*
X121217107Y-59648453D01*
X121110869Y-59799056D01*
X120977396Y-59926160D01*
X120821787Y-60024912D01*
X120649954Y-60091563D01*
X120468452Y-60123566D01*
X120284188Y-60119707D01*
X120104176Y-60080128D01*
X119935290Y-60006344D01*
X119783949Y-59901159D01*
X119655918Y-59768579D01*
X119556081Y-59613663D01*
X119488234Y-59442300D01*
X119454962Y-59261018D01*
X119457536Y-59076733D01*
X119495854Y-58896459D01*
X119568461Y-58727056D01*
X119672587Y-58574985D01*
X119804269Y-58446031D01*
X119958487Y-58345114D01*
X120129371Y-58276072D01*
X120310408Y-58241537D01*
X120494711Y-58242824D01*
X120494711Y-58242824D01*
G37*
G36*
X117954711Y-58242824D02*
X118135253Y-58279885D01*
X118305154Y-58351304D01*
X118457950Y-58454366D01*
X118587819Y-58585146D01*
X118689813Y-58738658D01*
X118760042Y-58909049D01*
X118795774Y-59089504D01*
X118795774Y-59089514D01*
X118795840Y-59089848D01*
X118792901Y-59300358D01*
X118792824Y-59300697D01*
X118792824Y-59300700D01*
X118752070Y-59480086D01*
X118677107Y-59648453D01*
X118570869Y-59799056D01*
X118437396Y-59926160D01*
X118281787Y-60024912D01*
X118109954Y-60091563D01*
X117928452Y-60123566D01*
X117744188Y-60119707D01*
X117564176Y-60080128D01*
X117395290Y-60006344D01*
X117243949Y-59901159D01*
X117115918Y-59768579D01*
X117016081Y-59613663D01*
X116948234Y-59442300D01*
X116914962Y-59261018D01*
X116917536Y-59076733D01*
X116955854Y-58896459D01*
X117028461Y-58727056D01*
X117132587Y-58574985D01*
X117264269Y-58446031D01*
X117418487Y-58345114D01*
X117589371Y-58276072D01*
X117770408Y-58241537D01*
X117954711Y-58242824D01*
X117954711Y-58242824D01*
G37*
G36*
X138274711Y-58242824D02*
X138455253Y-58279885D01*
X138625154Y-58351304D01*
X138777950Y-58454366D01*
X138907819Y-58585146D01*
X139009813Y-58738658D01*
X139080042Y-58909049D01*
X139115774Y-59089504D01*
X139115774Y-59089514D01*
X139115840Y-59089848D01*
X139112901Y-59300358D01*
X139112824Y-59300697D01*
X139112824Y-59300700D01*
X139072070Y-59480086D01*
X138997107Y-59648453D01*
X138890869Y-59799056D01*
X138757396Y-59926160D01*
X138601787Y-60024912D01*
X138429954Y-60091563D01*
X138248452Y-60123566D01*
X138064188Y-60119707D01*
X137884176Y-60080128D01*
X137715290Y-60006344D01*
X137563949Y-59901159D01*
X137435918Y-59768579D01*
X137336081Y-59613663D01*
X137268234Y-59442300D01*
X137234962Y-59261018D01*
X137237536Y-59076733D01*
X137275854Y-58896459D01*
X137348461Y-58727056D01*
X137452587Y-58574985D01*
X137584269Y-58446031D01*
X137738487Y-58345114D01*
X137909371Y-58276072D01*
X138090408Y-58241537D01*
X138274711Y-58242824D01*
X138274711Y-58242824D01*
G37*
G36*
X145894711Y-58242824D02*
X146075253Y-58279885D01*
X146245154Y-58351304D01*
X146397950Y-58454366D01*
X146527819Y-58585146D01*
X146629813Y-58738658D01*
X146700042Y-58909049D01*
X146735774Y-59089504D01*
X146735774Y-59089514D01*
X146735840Y-59089848D01*
X146732901Y-59300358D01*
X146732824Y-59300697D01*
X146732824Y-59300700D01*
X146692070Y-59480086D01*
X146617107Y-59648453D01*
X146510869Y-59799056D01*
X146377396Y-59926160D01*
X146221787Y-60024912D01*
X146049954Y-60091563D01*
X145868452Y-60123566D01*
X145684188Y-60119707D01*
X145504176Y-60080128D01*
X145335290Y-60006344D01*
X145183949Y-59901159D01*
X145055918Y-59768579D01*
X144956081Y-59613663D01*
X144888234Y-59442300D01*
X144854962Y-59261018D01*
X144857536Y-59076733D01*
X144895854Y-58896459D01*
X144968461Y-58727056D01*
X145072587Y-58574985D01*
X145204269Y-58446031D01*
X145358487Y-58345114D01*
X145529371Y-58276072D01*
X145710408Y-58241537D01*
X145894711Y-58242824D01*
X145894711Y-58242824D01*
G37*
G36*
X143354711Y-58242824D02*
X143535253Y-58279885D01*
X143705154Y-58351304D01*
X143857950Y-58454366D01*
X143987819Y-58585146D01*
X144089813Y-58738658D01*
X144160042Y-58909049D01*
X144195774Y-59089504D01*
X144195774Y-59089514D01*
X144195840Y-59089848D01*
X144192901Y-59300358D01*
X144192824Y-59300697D01*
X144192824Y-59300700D01*
X144152070Y-59480086D01*
X144077107Y-59648453D01*
X143970869Y-59799056D01*
X143837396Y-59926160D01*
X143681787Y-60024912D01*
X143509954Y-60091563D01*
X143328452Y-60123566D01*
X143144188Y-60119707D01*
X142964176Y-60080128D01*
X142795290Y-60006344D01*
X142643949Y-59901159D01*
X142515918Y-59768579D01*
X142416081Y-59613663D01*
X142348234Y-59442300D01*
X142314962Y-59261018D01*
X142317536Y-59076733D01*
X142355854Y-58896459D01*
X142428461Y-58727056D01*
X142532587Y-58574985D01*
X142664269Y-58446031D01*
X142818487Y-58345114D01*
X142989371Y-58276072D01*
X143170408Y-58241537D01*
X143354711Y-58242824D01*
X143354711Y-58242824D01*
G37*
G36*
X140814711Y-58242824D02*
X140995253Y-58279885D01*
X141165154Y-58351304D01*
X141317950Y-58454366D01*
X141447819Y-58585146D01*
X141549813Y-58738658D01*
X141620042Y-58909049D01*
X141655774Y-59089504D01*
X141655774Y-59089514D01*
X141655840Y-59089848D01*
X141652901Y-59300358D01*
X141652824Y-59300697D01*
X141652824Y-59300700D01*
X141612070Y-59480086D01*
X141537107Y-59648453D01*
X141430869Y-59799056D01*
X141297396Y-59926160D01*
X141141787Y-60024912D01*
X140969954Y-60091563D01*
X140788452Y-60123566D01*
X140604188Y-60119707D01*
X140424176Y-60080128D01*
X140255290Y-60006344D01*
X140103949Y-59901159D01*
X139975918Y-59768579D01*
X139876081Y-59613663D01*
X139808234Y-59442300D01*
X139774962Y-59261018D01*
X139777536Y-59076733D01*
X139815854Y-58896459D01*
X139888461Y-58727056D01*
X139992587Y-58574985D01*
X140124269Y-58446031D01*
X140278487Y-58345114D01*
X140449371Y-58276072D01*
X140630408Y-58241537D01*
X140814711Y-58242824D01*
X140814711Y-58242824D01*
G37*
G36*
X135734711Y-58242824D02*
X135915253Y-58279885D01*
X136085154Y-58351304D01*
X136237950Y-58454366D01*
X136367819Y-58585146D01*
X136469813Y-58738658D01*
X136540042Y-58909049D01*
X136575774Y-59089504D01*
X136575774Y-59089514D01*
X136575840Y-59089848D01*
X136572901Y-59300358D01*
X136572824Y-59300697D01*
X136572824Y-59300700D01*
X136532070Y-59480086D01*
X136457107Y-59648453D01*
X136350869Y-59799056D01*
X136217396Y-59926160D01*
X136061787Y-60024912D01*
X135889954Y-60091563D01*
X135708452Y-60123566D01*
X135524188Y-60119707D01*
X135344176Y-60080128D01*
X135175290Y-60006344D01*
X135023949Y-59901159D01*
X134895918Y-59768579D01*
X134796081Y-59613663D01*
X134728234Y-59442300D01*
X134694962Y-59261018D01*
X134697536Y-59076733D01*
X134735854Y-58896459D01*
X134808461Y-58727056D01*
X134912587Y-58574985D01*
X135044269Y-58446031D01*
X135198487Y-58345114D01*
X135369371Y-58276072D01*
X135550408Y-58241537D01*
X135734711Y-58242824D01*
X135734711Y-58242824D01*
G37*
G36*
X115410615Y-58281798D02*
X115583665Y-58317320D01*
X115746515Y-58385776D01*
X115892971Y-58484561D01*
X116017451Y-58609914D01*
X116115212Y-58757055D01*
X116182527Y-58920376D01*
X116216773Y-59093328D01*
X116216773Y-59093338D01*
X116216839Y-59093672D01*
X116214022Y-59295447D01*
X116213945Y-59295786D01*
X116213945Y-59295792D01*
X116174887Y-59467711D01*
X116103033Y-59629097D01*
X116001204Y-59773450D01*
X115873270Y-59895279D01*
X115724118Y-59989933D01*
X115559415Y-60053818D01*
X115385445Y-60084493D01*
X115208828Y-60080794D01*
X115036286Y-60042858D01*
X114874408Y-59972136D01*
X114729348Y-59871315D01*
X114606629Y-59744236D01*
X114510936Y-59595750D01*
X114445904Y-59431498D01*
X114414013Y-59257739D01*
X114416480Y-59081101D01*
X114453208Y-58908309D01*
X114522802Y-58745935D01*
X114622606Y-58600174D01*
X114748824Y-58476572D01*
X114896643Y-58379842D01*
X115060436Y-58313665D01*
X115233960Y-58280564D01*
X115410615Y-58281798D01*
X115410615Y-58281798D01*
G37*
G36*
X113676800Y-60082800D02*
X111875200Y-60082800D01*
X111875200Y-58281200D01*
X113676800Y-58281200D01*
X113676800Y-60082800D01*
X113676800Y-60082800D01*
G37*
G36*
X86115468Y-56622078D02*
X86115476Y-56622079D01*
X86117490Y-56622093D01*
X86301742Y-56642760D01*
X86478471Y-56698821D01*
X86640945Y-56788142D01*
X86782975Y-56907320D01*
X86899152Y-57051815D01*
X86985051Y-57216124D01*
X87037399Y-57393988D01*
X87037402Y-57394022D01*
X87037406Y-57394035D01*
X87054206Y-57578629D01*
X87034829Y-57762976D01*
X87034826Y-57762986D01*
X87034822Y-57763024D01*
X86979996Y-57940140D01*
X86891812Y-58103233D01*
X86773628Y-58246092D01*
X86629948Y-58363275D01*
X86466243Y-58450319D01*
X86288749Y-58503907D01*
X86104226Y-58522000D01*
X84587735Y-58522000D01*
X84576532Y-58521922D01*
X84576524Y-58521921D01*
X84574510Y-58521907D01*
X84390258Y-58501240D01*
X84213529Y-58445179D01*
X84051055Y-58355858D01*
X83909025Y-58236680D01*
X83792848Y-58092185D01*
X83706949Y-57927876D01*
X83654601Y-57750012D01*
X83654598Y-57749978D01*
X83654594Y-57749965D01*
X83637794Y-57565371D01*
X83657171Y-57381024D01*
X83657174Y-57381014D01*
X83657178Y-57380976D01*
X83712004Y-57203860D01*
X83800188Y-57040767D01*
X83918372Y-56897908D01*
X84062052Y-56780725D01*
X84225757Y-56693681D01*
X84403251Y-56640093D01*
X84587774Y-56622000D01*
X86104265Y-56622000D01*
X86115468Y-56622078D01*
X86115468Y-56622078D01*
G37*
G36*
X82825061Y-53203198D02*
X83170852Y-53274178D01*
X83496265Y-53410969D01*
X83788918Y-53608366D01*
X84037650Y-53858840D01*
X84232998Y-54152862D01*
X84367514Y-54479223D01*
X84436011Y-54825157D01*
X84436011Y-54825167D01*
X84436077Y-54825501D01*
X84430447Y-55228691D01*
X84430371Y-55229025D01*
X84430371Y-55229037D01*
X84352244Y-55572916D01*
X84208665Y-55895398D01*
X84005187Y-56183848D01*
X83749551Y-56427286D01*
X83451508Y-56616429D01*
X83122398Y-56744084D01*
X82774765Y-56805380D01*
X82421844Y-56797988D01*
X82077074Y-56722185D01*
X81753603Y-56580864D01*
X81463739Y-56379403D01*
X81218523Y-56125475D01*
X81027304Y-55828761D01*
X80897356Y-55500550D01*
X80833632Y-55153346D01*
X80838561Y-54800384D01*
X80911952Y-54455102D01*
X81051015Y-54130647D01*
X81250447Y-53839383D01*
X81502656Y-53592401D01*
X81798031Y-53399113D01*
X82125326Y-53266877D01*
X82472068Y-53200733D01*
X82825061Y-53203198D01*
X82825061Y-53203198D01*
G37*
G36*
X99225034Y-53438664D02*
X99417141Y-53478098D01*
X99597925Y-53554093D01*
X99760509Y-53663756D01*
X99898697Y-53802913D01*
X100007223Y-53966256D01*
X100081954Y-54147567D01*
X100119978Y-54339601D01*
X100119978Y-54339616D01*
X100120043Y-54339945D01*
X100116916Y-54563940D01*
X100116839Y-54564278D01*
X100116839Y-54564286D01*
X100073471Y-54755175D01*
X99993705Y-54934333D01*
X99880661Y-55094583D01*
X99738639Y-55229828D01*
X99573061Y-55334906D01*
X99390221Y-55405827D01*
X99197093Y-55439879D01*
X99001025Y-55435773D01*
X98809485Y-55393660D01*
X98629779Y-55315147D01*
X98468742Y-55203225D01*
X98332511Y-55062153D01*
X98226279Y-54897313D01*
X98154085Y-54714974D01*
X98118682Y-54522080D01*
X98121421Y-54325990D01*
X98162194Y-54134168D01*
X98239451Y-53953914D01*
X98350247Y-53792101D01*
X98490364Y-53654887D01*
X98654461Y-53547505D01*
X98836292Y-53474041D01*
X99028925Y-53437294D01*
X99225034Y-53438664D01*
X99225034Y-53438664D01*
G37*
G36*
X96685034Y-53438664D02*
X96877141Y-53478098D01*
X97057925Y-53554093D01*
X97220509Y-53663756D01*
X97358697Y-53802913D01*
X97467223Y-53966256D01*
X97541954Y-54147567D01*
X97579978Y-54339601D01*
X97579978Y-54339616D01*
X97580043Y-54339945D01*
X97576916Y-54563940D01*
X97576839Y-54564278D01*
X97576839Y-54564286D01*
X97533471Y-54755175D01*
X97453705Y-54934333D01*
X97340661Y-55094583D01*
X97198639Y-55229828D01*
X97033061Y-55334906D01*
X96850221Y-55405827D01*
X96657093Y-55439879D01*
X96461025Y-55435773D01*
X96269485Y-55393660D01*
X96089779Y-55315147D01*
X95928742Y-55203225D01*
X95792511Y-55062153D01*
X95686279Y-54897313D01*
X95614085Y-54714974D01*
X95578682Y-54522080D01*
X95581421Y-54325990D01*
X95622194Y-54134168D01*
X95699451Y-53953914D01*
X95810247Y-53792101D01*
X95950364Y-53654887D01*
X96114461Y-53547505D01*
X96296292Y-53474041D01*
X96488925Y-53437294D01*
X96685034Y-53438664D01*
X96685034Y-53438664D01*
G37*
G36*
X101765034Y-53438664D02*
X101957141Y-53478098D01*
X102137925Y-53554093D01*
X102300509Y-53663756D01*
X102438697Y-53802913D01*
X102547223Y-53966256D01*
X102621954Y-54147567D01*
X102659978Y-54339601D01*
X102659978Y-54339616D01*
X102660043Y-54339945D01*
X102656916Y-54563940D01*
X102656839Y-54564278D01*
X102656839Y-54564286D01*
X102613471Y-54755175D01*
X102533705Y-54934333D01*
X102420661Y-55094583D01*
X102278639Y-55229828D01*
X102113061Y-55334906D01*
X101930221Y-55405827D01*
X101737093Y-55439879D01*
X101541025Y-55435773D01*
X101349485Y-55393660D01*
X101169779Y-55315147D01*
X101008742Y-55203225D01*
X100872511Y-55062153D01*
X100766279Y-54897313D01*
X100694085Y-54714974D01*
X100658682Y-54522080D01*
X100661421Y-54325990D01*
X100702194Y-54134168D01*
X100779451Y-53953914D01*
X100890247Y-53792101D01*
X101030364Y-53654887D01*
X101194461Y-53547505D01*
X101376292Y-53474041D01*
X101568925Y-53437294D01*
X101765034Y-53438664D01*
X101765034Y-53438664D01*
G37*
G36*
X104305034Y-53438664D02*
X104497141Y-53478098D01*
X104677925Y-53554093D01*
X104840509Y-53663756D01*
X104978697Y-53802913D01*
X105087223Y-53966256D01*
X105161954Y-54147567D01*
X105199978Y-54339601D01*
X105199978Y-54339616D01*
X105200043Y-54339945D01*
X105196916Y-54563940D01*
X105196839Y-54564278D01*
X105196839Y-54564286D01*
X105153471Y-54755175D01*
X105073705Y-54934333D01*
X104960661Y-55094583D01*
X104818639Y-55229828D01*
X104653061Y-55334906D01*
X104470221Y-55405827D01*
X104277093Y-55439879D01*
X104081025Y-55435773D01*
X103889485Y-55393660D01*
X103709779Y-55315147D01*
X103548742Y-55203225D01*
X103412511Y-55062153D01*
X103306279Y-54897313D01*
X103234085Y-54714974D01*
X103198682Y-54522080D01*
X103201421Y-54325990D01*
X103242194Y-54134168D01*
X103319451Y-53953914D01*
X103430247Y-53792101D01*
X103570364Y-53654887D01*
X103734461Y-53547505D01*
X103916292Y-53474041D01*
X104108925Y-53437294D01*
X104305034Y-53438664D01*
X104305034Y-53438664D01*
G37*
G36*
X100495034Y-50898664D02*
X100687141Y-50938098D01*
X100867925Y-51014093D01*
X101030509Y-51123756D01*
X101168697Y-51262913D01*
X101277223Y-51426256D01*
X101351954Y-51607567D01*
X101389978Y-51799601D01*
X101389978Y-51799616D01*
X101390043Y-51799945D01*
X101386916Y-52023940D01*
X101386839Y-52024278D01*
X101386839Y-52024286D01*
X101343471Y-52215175D01*
X101263705Y-52394333D01*
X101150661Y-52554583D01*
X101008639Y-52689828D01*
X100843061Y-52794906D01*
X100660221Y-52865827D01*
X100467093Y-52899879D01*
X100271025Y-52895773D01*
X100079485Y-52853660D01*
X99899779Y-52775147D01*
X99738742Y-52663225D01*
X99602511Y-52522153D01*
X99496279Y-52357313D01*
X99424085Y-52174974D01*
X99388682Y-51982080D01*
X99391421Y-51785990D01*
X99432194Y-51594168D01*
X99509451Y-51413914D01*
X99620247Y-51252101D01*
X99760364Y-51114887D01*
X99924461Y-51007505D01*
X100106292Y-50934041D01*
X100298925Y-50897294D01*
X100495034Y-50898664D01*
X100495034Y-50898664D01*
G37*
G36*
X103035034Y-50898664D02*
X103227141Y-50938098D01*
X103407925Y-51014093D01*
X103570509Y-51123756D01*
X103708697Y-51262913D01*
X103817223Y-51426256D01*
X103891954Y-51607567D01*
X103929978Y-51799601D01*
X103929978Y-51799616D01*
X103930043Y-51799945D01*
X103926916Y-52023940D01*
X103926839Y-52024278D01*
X103926839Y-52024286D01*
X103883471Y-52215175D01*
X103803705Y-52394333D01*
X103690661Y-52554583D01*
X103548639Y-52689828D01*
X103383061Y-52794906D01*
X103200221Y-52865827D01*
X103007093Y-52899879D01*
X102811025Y-52895773D01*
X102619485Y-52853660D01*
X102439779Y-52775147D01*
X102278742Y-52663225D01*
X102142511Y-52522153D01*
X102036279Y-52357313D01*
X101964085Y-52174974D01*
X101928682Y-51982080D01*
X101931421Y-51785990D01*
X101972194Y-51594168D01*
X102049451Y-51413914D01*
X102160247Y-51252101D01*
X102300364Y-51114887D01*
X102464461Y-51007505D01*
X102646292Y-50934041D01*
X102838925Y-50897294D01*
X103035034Y-50898664D01*
X103035034Y-50898664D01*
G37*
G36*
X105575034Y-50898664D02*
X105767141Y-50938098D01*
X105947925Y-51014093D01*
X106110509Y-51123756D01*
X106248697Y-51262913D01*
X106357223Y-51426256D01*
X106431954Y-51607567D01*
X106469978Y-51799601D01*
X106469978Y-51799616D01*
X106470043Y-51799945D01*
X106466916Y-52023940D01*
X106466839Y-52024278D01*
X106466839Y-52024286D01*
X106423471Y-52215175D01*
X106343705Y-52394333D01*
X106230661Y-52554583D01*
X106088639Y-52689828D01*
X105923061Y-52794906D01*
X105740221Y-52865827D01*
X105547093Y-52899879D01*
X105351025Y-52895773D01*
X105159485Y-52853660D01*
X104979779Y-52775147D01*
X104818742Y-52663225D01*
X104682511Y-52522153D01*
X104576279Y-52357313D01*
X104504085Y-52174974D01*
X104468682Y-51982080D01*
X104471421Y-51785990D01*
X104512194Y-51594168D01*
X104589451Y-51413914D01*
X104700247Y-51252101D01*
X104840364Y-51114887D01*
X105004461Y-51007505D01*
X105186292Y-50934041D01*
X105378925Y-50897294D01*
X105575034Y-50898664D01*
X105575034Y-50898664D01*
G37*
G36*
X97955034Y-50898664D02*
X98147141Y-50938098D01*
X98327925Y-51014093D01*
X98490509Y-51123756D01*
X98628697Y-51262913D01*
X98737223Y-51426256D01*
X98811954Y-51607567D01*
X98849978Y-51799601D01*
X98849978Y-51799616D01*
X98850043Y-51799945D01*
X98846916Y-52023940D01*
X98846839Y-52024278D01*
X98846839Y-52024286D01*
X98803471Y-52215175D01*
X98723705Y-52394333D01*
X98610661Y-52554583D01*
X98468639Y-52689828D01*
X98303061Y-52794906D01*
X98120221Y-52865827D01*
X97927093Y-52899879D01*
X97731025Y-52895773D01*
X97539485Y-52853660D01*
X97359779Y-52775147D01*
X97198742Y-52663225D01*
X97062511Y-52522153D01*
X96956279Y-52357313D01*
X96884085Y-52174974D01*
X96848682Y-51982080D01*
X96851421Y-51785990D01*
X96892194Y-51594168D01*
X96969451Y-51413914D01*
X97080247Y-51252101D01*
X97220364Y-51114887D01*
X97384461Y-51007505D01*
X97566292Y-50934041D01*
X97758925Y-50897294D01*
X97955034Y-50898664D01*
X97955034Y-50898664D01*
G37*
G36*
X150425711Y-49718824D02*
X150606253Y-49755885D01*
X150776154Y-49827304D01*
X150928950Y-49930366D01*
X151058819Y-50061146D01*
X151160813Y-50214658D01*
X151231042Y-50385049D01*
X151266774Y-50565504D01*
X151266774Y-50565514D01*
X151266840Y-50565848D01*
X151263901Y-50776358D01*
X151263824Y-50776697D01*
X151263824Y-50776700D01*
X151223070Y-50956086D01*
X151148107Y-51124453D01*
X151041869Y-51275056D01*
X150908396Y-51402160D01*
X150752787Y-51500912D01*
X150580954Y-51567563D01*
X150399452Y-51599566D01*
X150215188Y-51595707D01*
X150035176Y-51556128D01*
X149866290Y-51482344D01*
X149714949Y-51377159D01*
X149586918Y-51244579D01*
X149487081Y-51089663D01*
X149419234Y-50918300D01*
X149385962Y-50737018D01*
X149388536Y-50552733D01*
X149426854Y-50372459D01*
X149499461Y-50203056D01*
X149603587Y-50050985D01*
X149735269Y-49922031D01*
X149889487Y-49821114D01*
X150060371Y-49752072D01*
X150241408Y-49717537D01*
X150425711Y-49718824D01*
X150425711Y-49718824D01*
G37*
G36*
X158045711Y-49718824D02*
X158226253Y-49755885D01*
X158396154Y-49827304D01*
X158548950Y-49930366D01*
X158678819Y-50061146D01*
X158780813Y-50214658D01*
X158851042Y-50385049D01*
X158886774Y-50565504D01*
X158886774Y-50565514D01*
X158886840Y-50565848D01*
X158883901Y-50776358D01*
X158883824Y-50776697D01*
X158883824Y-50776700D01*
X158843070Y-50956086D01*
X158768107Y-51124453D01*
X158661869Y-51275056D01*
X158528396Y-51402160D01*
X158372787Y-51500912D01*
X158200954Y-51567563D01*
X158019452Y-51599566D01*
X157835188Y-51595707D01*
X157655176Y-51556128D01*
X157486290Y-51482344D01*
X157334949Y-51377159D01*
X157206918Y-51244579D01*
X157107081Y-51089663D01*
X157039234Y-50918300D01*
X157005962Y-50737018D01*
X157008536Y-50552733D01*
X157046854Y-50372459D01*
X157119461Y-50203056D01*
X157223587Y-50050985D01*
X157355269Y-49922031D01*
X157509487Y-49821114D01*
X157680371Y-49752072D01*
X157861408Y-49717537D01*
X158045711Y-49718824D01*
X158045711Y-49718824D01*
G37*
G36*
X152965711Y-49718824D02*
X153146253Y-49755885D01*
X153316154Y-49827304D01*
X153468950Y-49930366D01*
X153598819Y-50061146D01*
X153700813Y-50214658D01*
X153771042Y-50385049D01*
X153806774Y-50565504D01*
X153806774Y-50565514D01*
X153806840Y-50565848D01*
X153803901Y-50776358D01*
X153803824Y-50776697D01*
X153803824Y-50776700D01*
X153763070Y-50956086D01*
X153688107Y-51124453D01*
X153581869Y-51275056D01*
X153448396Y-51402160D01*
X153292787Y-51500912D01*
X153120954Y-51567563D01*
X152939452Y-51599566D01*
X152755188Y-51595707D01*
X152575176Y-51556128D01*
X152406290Y-51482344D01*
X152254949Y-51377159D01*
X152126918Y-51244579D01*
X152027081Y-51089663D01*
X151959234Y-50918300D01*
X151925962Y-50737018D01*
X151928536Y-50552733D01*
X151966854Y-50372459D01*
X152039461Y-50203056D01*
X152143587Y-50050985D01*
X152275269Y-49922031D01*
X152429487Y-49821114D01*
X152600371Y-49752072D01*
X152781408Y-49717537D01*
X152965711Y-49718824D01*
X152965711Y-49718824D01*
G37*
G36*
X160585711Y-49718824D02*
X160766253Y-49755885D01*
X160936154Y-49827304D01*
X161088950Y-49930366D01*
X161218819Y-50061146D01*
X161320813Y-50214658D01*
X161391042Y-50385049D01*
X161426774Y-50565504D01*
X161426774Y-50565514D01*
X161426840Y-50565848D01*
X161423901Y-50776358D01*
X161423824Y-50776697D01*
X161423824Y-50776700D01*
X161383070Y-50956086D01*
X161308107Y-51124453D01*
X161201869Y-51275056D01*
X161068396Y-51402160D01*
X160912787Y-51500912D01*
X160740954Y-51567563D01*
X160559452Y-51599566D01*
X160375188Y-51595707D01*
X160195176Y-51556128D01*
X160026290Y-51482344D01*
X159874949Y-51377159D01*
X159746918Y-51244579D01*
X159647081Y-51089663D01*
X159579234Y-50918300D01*
X159545962Y-50737018D01*
X159548536Y-50552733D01*
X159586854Y-50372459D01*
X159659461Y-50203056D01*
X159763587Y-50050985D01*
X159895269Y-49922031D01*
X160049487Y-49821114D01*
X160220371Y-49752072D01*
X160401408Y-49717537D01*
X160585711Y-49718824D01*
X160585711Y-49718824D01*
G37*
G36*
X155505711Y-49718824D02*
X155686253Y-49755885D01*
X155856154Y-49827304D01*
X156008950Y-49930366D01*
X156138819Y-50061146D01*
X156240813Y-50214658D01*
X156311042Y-50385049D01*
X156346774Y-50565504D01*
X156346774Y-50565514D01*
X156346840Y-50565848D01*
X156343901Y-50776358D01*
X156343824Y-50776697D01*
X156343824Y-50776700D01*
X156303070Y-50956086D01*
X156228107Y-51124453D01*
X156121869Y-51275056D01*
X155988396Y-51402160D01*
X155832787Y-51500912D01*
X155660954Y-51567563D01*
X155479452Y-51599566D01*
X155295188Y-51595707D01*
X155115176Y-51556128D01*
X154946290Y-51482344D01*
X154794949Y-51377159D01*
X154666918Y-51244579D01*
X154567081Y-51089663D01*
X154499234Y-50918300D01*
X154465962Y-50737018D01*
X154468536Y-50552733D01*
X154506854Y-50372459D01*
X154579461Y-50203056D01*
X154683587Y-50050985D01*
X154815269Y-49922031D01*
X154969487Y-49821114D01*
X155140371Y-49752072D01*
X155321408Y-49717537D01*
X155505711Y-49718824D01*
X155505711Y-49718824D01*
G37*
G36*
X106969816Y-43599297D02*
X107344423Y-43676193D01*
X107696954Y-43824383D01*
X108013991Y-44038227D01*
X108283456Y-44309580D01*
X108495081Y-44628101D01*
X108640807Y-44981658D01*
X108715018Y-45356449D01*
X108715018Y-45356464D01*
X108715083Y-45356793D01*
X108708984Y-45793582D01*
X108708908Y-45793916D01*
X108708908Y-45793928D01*
X108624264Y-46166493D01*
X108468721Y-46515848D01*
X108367618Y-46659171D01*
X108361206Y-46671695D01*
X108358537Y-46685509D01*
X108359822Y-46699520D01*
X108364959Y-46712618D01*
X108373543Y-46723766D01*
X108384892Y-46732082D01*
X108398108Y-46736907D01*
X108417844Y-46737107D01*
X108628390Y-46696943D01*
X108922551Y-46698997D01*
X109210710Y-46758148D01*
X109481888Y-46872140D01*
X109725766Y-47036638D01*
X109933042Y-47245366D01*
X110095834Y-47490387D01*
X110207928Y-47762350D01*
X110264999Y-48050574D01*
X110264999Y-48050588D01*
X110265064Y-48050917D01*
X110260373Y-48386910D01*
X110260297Y-48387244D01*
X110260297Y-48387255D01*
X110195203Y-48673764D01*
X110075554Y-48942500D01*
X109905992Y-49182872D01*
X109692959Y-49385740D01*
X109444591Y-49543358D01*
X109170332Y-49649738D01*
X108880638Y-49700818D01*
X108586537Y-49694658D01*
X108299229Y-49631489D01*
X108029672Y-49513722D01*
X107788112Y-49345834D01*
X107583768Y-49134230D01*
X107424419Y-48886968D01*
X107316129Y-48613459D01*
X107263025Y-48324121D01*
X107267133Y-48029986D01*
X107328293Y-47742252D01*
X107446109Y-47467366D01*
X107445880Y-47467268D01*
X107448354Y-47462263D01*
X107450827Y-47448412D01*
X107449344Y-47434421D01*
X107444021Y-47421397D01*
X107435281Y-47410371D01*
X107423815Y-47402217D01*
X107410532Y-47397581D01*
X107396482Y-47396828D01*
X107382778Y-47400020D01*
X107291931Y-47435258D01*
X106915328Y-47501662D01*
X106532997Y-47493654D01*
X106159497Y-47411534D01*
X105809074Y-47258438D01*
X105495047Y-47040184D01*
X105229400Y-46765098D01*
X105022245Y-46443657D01*
X104881468Y-46088096D01*
X104812434Y-45711958D01*
X104817774Y-45329582D01*
X104897282Y-44955527D01*
X105047933Y-44604034D01*
X105263984Y-44288499D01*
X105537211Y-44020934D01*
X105857201Y-43811539D01*
X106211770Y-43668284D01*
X106587408Y-43596627D01*
X106969816Y-43599297D01*
X106969816Y-43599297D01*
G37*
G36*
X95539816Y-43599297D02*
X95914423Y-43676193D01*
X96266954Y-43824383D01*
X96583991Y-44038227D01*
X96853456Y-44309580D01*
X97065081Y-44628101D01*
X97210807Y-44981658D01*
X97285018Y-45356449D01*
X97285018Y-45356464D01*
X97285083Y-45356793D01*
X97278984Y-45793582D01*
X97278908Y-45793916D01*
X97278908Y-45793928D01*
X97194264Y-46166493D01*
X97038721Y-46515848D01*
X96818286Y-46828335D01*
X96541347Y-47092060D01*
X96218467Y-47296965D01*
X95861931Y-47435258D01*
X95485328Y-47501662D01*
X95102997Y-47493654D01*
X94729497Y-47411534D01*
X94637117Y-47371174D01*
X94623560Y-47367411D01*
X94609492Y-47367574D01*
X94596025Y-47371650D01*
X94584228Y-47379317D01*
X94575033Y-47389966D01*
X94569170Y-47402756D01*
X94567101Y-47416673D01*
X94568992Y-47430615D01*
X94575454Y-47444662D01*
X94605834Y-47490387D01*
X94717928Y-47762350D01*
X94774999Y-48050574D01*
X94774999Y-48050588D01*
X94775064Y-48050917D01*
X94770373Y-48386910D01*
X94770297Y-48387244D01*
X94770297Y-48387255D01*
X94705203Y-48673764D01*
X94585554Y-48942500D01*
X94415992Y-49182872D01*
X94202959Y-49385740D01*
X93954591Y-49543358D01*
X93680332Y-49649738D01*
X93390638Y-49700818D01*
X93096537Y-49694658D01*
X92809229Y-49631489D01*
X92539672Y-49513722D01*
X92298112Y-49345834D01*
X92093768Y-49134230D01*
X91934419Y-48886968D01*
X91826129Y-48613459D01*
X91773025Y-48324121D01*
X91777133Y-48029986D01*
X91838293Y-47742252D01*
X91954178Y-47471872D01*
X92120372Y-47229152D01*
X92330547Y-47023333D01*
X92576692Y-46862260D01*
X92849438Y-46752063D01*
X93138390Y-46696943D01*
X93432551Y-46698997D01*
X93689719Y-46751786D01*
X93703762Y-46752648D01*
X93717490Y-46749563D01*
X93729814Y-46742776D01*
X93739760Y-46732825D01*
X93746539Y-46720496D01*
X93749616Y-46706767D01*
X93748746Y-46692724D01*
X93741801Y-46675722D01*
X93592245Y-46443657D01*
X93451468Y-46088096D01*
X93382434Y-45711958D01*
X93387774Y-45329582D01*
X93467282Y-44955527D01*
X93617933Y-44604034D01*
X93833984Y-44288499D01*
X94107211Y-44020934D01*
X94427201Y-43811539D01*
X94781770Y-43668284D01*
X95157408Y-43596627D01*
X95539816Y-43599297D01*
X95539816Y-43599297D01*
G37*
G36*
X158045711Y-47178824D02*
X158226253Y-47215885D01*
X158396154Y-47287304D01*
X158548950Y-47390366D01*
X158678819Y-47521146D01*
X158780813Y-47674658D01*
X158851042Y-47845049D01*
X158886774Y-48025504D01*
X158886774Y-48025514D01*
X158886840Y-48025848D01*
X158883901Y-48236358D01*
X158883824Y-48236697D01*
X158883824Y-48236700D01*
X158843070Y-48416086D01*
X158768107Y-48584453D01*
X158661869Y-48735056D01*
X158528396Y-48862160D01*
X158372787Y-48960912D01*
X158200954Y-49027563D01*
X158019452Y-49059566D01*
X157835188Y-49055707D01*
X157655176Y-49016128D01*
X157486290Y-48942344D01*
X157334949Y-48837159D01*
X157206918Y-48704579D01*
X157107081Y-48549663D01*
X157039234Y-48378300D01*
X157005962Y-48197018D01*
X157008536Y-48012733D01*
X157046854Y-47832459D01*
X157119461Y-47663056D01*
X157223587Y-47510985D01*
X157355269Y-47382031D01*
X157509487Y-47281114D01*
X157680371Y-47212072D01*
X157861408Y-47177537D01*
X158045711Y-47178824D01*
X158045711Y-47178824D01*
G37*
G36*
X155505711Y-47178824D02*
X155686253Y-47215885D01*
X155856154Y-47287304D01*
X156008950Y-47390366D01*
X156138819Y-47521146D01*
X156240813Y-47674658D01*
X156311042Y-47845049D01*
X156346774Y-48025504D01*
X156346774Y-48025514D01*
X156346840Y-48025848D01*
X156343901Y-48236358D01*
X156343824Y-48236697D01*
X156343824Y-48236700D01*
X156303070Y-48416086D01*
X156228107Y-48584453D01*
X156121869Y-48735056D01*
X155988396Y-48862160D01*
X155832787Y-48960912D01*
X155660954Y-49027563D01*
X155479452Y-49059566D01*
X155295188Y-49055707D01*
X155115176Y-49016128D01*
X154946290Y-48942344D01*
X154794949Y-48837159D01*
X154666918Y-48704579D01*
X154567081Y-48549663D01*
X154499234Y-48378300D01*
X154465962Y-48197018D01*
X154468536Y-48012733D01*
X154506854Y-47832459D01*
X154579461Y-47663056D01*
X154683587Y-47510985D01*
X154815269Y-47382031D01*
X154969487Y-47281114D01*
X155140371Y-47212072D01*
X155321408Y-47177537D01*
X155505711Y-47178824D01*
X155505711Y-47178824D01*
G37*
G36*
X152965711Y-47178824D02*
X153146253Y-47215885D01*
X153316154Y-47287304D01*
X153468950Y-47390366D01*
X153598819Y-47521146D01*
X153700813Y-47674658D01*
X153771042Y-47845049D01*
X153806774Y-48025504D01*
X153806774Y-48025514D01*
X153806840Y-48025848D01*
X153803901Y-48236358D01*
X153803824Y-48236697D01*
X153803824Y-48236700D01*
X153763070Y-48416086D01*
X153688107Y-48584453D01*
X153581869Y-48735056D01*
X153448396Y-48862160D01*
X153292787Y-48960912D01*
X153120954Y-49027563D01*
X152939452Y-49059566D01*
X152755188Y-49055707D01*
X152575176Y-49016128D01*
X152406290Y-48942344D01*
X152254949Y-48837159D01*
X152126918Y-48704579D01*
X152027081Y-48549663D01*
X151959234Y-48378300D01*
X151925962Y-48197018D01*
X151928536Y-48012733D01*
X151966854Y-47832459D01*
X152039461Y-47663056D01*
X152143587Y-47510985D01*
X152275269Y-47382031D01*
X152429487Y-47281114D01*
X152600371Y-47212072D01*
X152781408Y-47177537D01*
X152965711Y-47178824D01*
X152965711Y-47178824D01*
G37*
G36*
X150425711Y-47178824D02*
X150606253Y-47215885D01*
X150776154Y-47287304D01*
X150928950Y-47390366D01*
X151058819Y-47521146D01*
X151160813Y-47674658D01*
X151231042Y-47845049D01*
X151266774Y-48025504D01*
X151266774Y-48025514D01*
X151266840Y-48025848D01*
X151263901Y-48236358D01*
X151263824Y-48236697D01*
X151263824Y-48236700D01*
X151223070Y-48416086D01*
X151148107Y-48584453D01*
X151041869Y-48735056D01*
X150908396Y-48862160D01*
X150752787Y-48960912D01*
X150580954Y-49027563D01*
X150399452Y-49059566D01*
X150215188Y-49055707D01*
X150035176Y-49016128D01*
X149866290Y-48942344D01*
X149714949Y-48837159D01*
X149586918Y-48704579D01*
X149487081Y-48549663D01*
X149419234Y-48378300D01*
X149385962Y-48197018D01*
X149388536Y-48012733D01*
X149426854Y-47832459D01*
X149499461Y-47663056D01*
X149603587Y-47510985D01*
X149735269Y-47382031D01*
X149889487Y-47281114D01*
X150060371Y-47212072D01*
X150241408Y-47177537D01*
X150425711Y-47178824D01*
X150425711Y-47178824D01*
G37*
G36*
X161426800Y-49057800D02*
X159547200Y-49057800D01*
X159547200Y-47178200D01*
X161426800Y-47178200D01*
X161426800Y-49057800D01*
X161426800Y-49057800D01*
G37*
G36*
X85208002Y-46367077D02*
X83878923Y-47696156D01*
X82549844Y-46367077D01*
X83878923Y-45037998D01*
X85208002Y-46367077D01*
X85208002Y-46367077D01*
G37*
G36*
X85773685Y-43631850D02*
X85954227Y-43668911D01*
X86124128Y-43740330D01*
X86276924Y-43843392D01*
X86406793Y-43974172D01*
X86508787Y-44127684D01*
X86579016Y-44298075D01*
X86614748Y-44478530D01*
X86614748Y-44478540D01*
X86614814Y-44478874D01*
X86611875Y-44689384D01*
X86611798Y-44689723D01*
X86611798Y-44689726D01*
X86571044Y-44869112D01*
X86496081Y-45037479D01*
X86389843Y-45188082D01*
X86256370Y-45315186D01*
X86100761Y-45413938D01*
X85928928Y-45480589D01*
X85747426Y-45512592D01*
X85563162Y-45508733D01*
X85383150Y-45469154D01*
X85214264Y-45395370D01*
X85062923Y-45290185D01*
X84934892Y-45157605D01*
X84835055Y-45002689D01*
X84767208Y-44831326D01*
X84733936Y-44650044D01*
X84736510Y-44465759D01*
X84774828Y-44285485D01*
X84847435Y-44116082D01*
X84951561Y-43964011D01*
X85083243Y-43835057D01*
X85237461Y-43734140D01*
X85408345Y-43665098D01*
X85589382Y-43630563D01*
X85773685Y-43631850D01*
X85773685Y-43631850D01*
G37*
G36*
X78336109Y-38802130D02*
X78950846Y-38928318D01*
X79529361Y-39171503D01*
X80049629Y-39522428D01*
X80491822Y-39967718D01*
X80839107Y-40490424D01*
X81078245Y-41070619D01*
X81200071Y-41685880D01*
X81200071Y-41685890D01*
X81200137Y-41686224D01*
X81190128Y-42403007D01*
X81190052Y-42403341D01*
X81190052Y-42403353D01*
X81051098Y-43014963D01*
X80795848Y-43588262D01*
X80434108Y-44101063D01*
X79979647Y-44533839D01*
X79449791Y-44870096D01*
X78864707Y-45097036D01*
X78246691Y-45206008D01*
X77619276Y-45192866D01*
X77006358Y-45058107D01*
X76431294Y-44806867D01*
X75915981Y-44448716D01*
X75480044Y-43997290D01*
X75140096Y-43469794D01*
X74909078Y-42886310D01*
X74795791Y-42269062D01*
X74804554Y-41641572D01*
X74935028Y-41027736D01*
X75182249Y-40450928D01*
X75536796Y-39933126D01*
X75985166Y-39494049D01*
X76510279Y-39150425D01*
X77092135Y-38915339D01*
X77708569Y-38797748D01*
X78336109Y-38802130D01*
X78336109Y-38802130D01*
G37*
G36*
X167336109Y-38802130D02*
X167950846Y-38928318D01*
X168529361Y-39171503D01*
X169049629Y-39522428D01*
X169491822Y-39967718D01*
X169839107Y-40490424D01*
X170078245Y-41070619D01*
X170200071Y-41685880D01*
X170200071Y-41685890D01*
X170200137Y-41686224D01*
X170190128Y-42403007D01*
X170190052Y-42403341D01*
X170190052Y-42403353D01*
X170051098Y-43014963D01*
X169795848Y-43588262D01*
X169434108Y-44101063D01*
X168979647Y-44533839D01*
X168449791Y-44870096D01*
X167864707Y-45097036D01*
X167246691Y-45206008D01*
X166619276Y-45192866D01*
X166006358Y-45058107D01*
X165431294Y-44806867D01*
X164915981Y-44448716D01*
X164480044Y-43997290D01*
X164140096Y-43469794D01*
X163909078Y-42886310D01*
X163795791Y-42269062D01*
X163804554Y-41641572D01*
X163935028Y-41027736D01*
X164182249Y-40450928D01*
X164536796Y-39933126D01*
X164985166Y-39494049D01*
X165510279Y-39150425D01*
X166092135Y-38915339D01*
X166708569Y-38797748D01*
X167336109Y-38802130D01*
X167336109Y-38802130D01*
G37*
G36*
X87565641Y-41874772D02*
X87738691Y-41910294D01*
X87901541Y-41978750D01*
X88047997Y-42077535D01*
X88172477Y-42202888D01*
X88270238Y-42350029D01*
X88337553Y-42513350D01*
X88371799Y-42686302D01*
X88371799Y-42686312D01*
X88371865Y-42686646D01*
X88369048Y-42888421D01*
X88368971Y-42888760D01*
X88368971Y-42888766D01*
X88329913Y-43060685D01*
X88258059Y-43222071D01*
X88156230Y-43366424D01*
X88028296Y-43488253D01*
X87879144Y-43582907D01*
X87714441Y-43646792D01*
X87540471Y-43677467D01*
X87363854Y-43673768D01*
X87191312Y-43635832D01*
X87029434Y-43565110D01*
X86884374Y-43464289D01*
X86761655Y-43337210D01*
X86665962Y-43188724D01*
X86600930Y-43024472D01*
X86569039Y-42850713D01*
X86571506Y-42674075D01*
X86608234Y-42501283D01*
X86677828Y-42338909D01*
X86777632Y-42193148D01*
X86903850Y-42069546D01*
X87051669Y-41972816D01*
X87215462Y-41906639D01*
X87388986Y-41873538D01*
X87565641Y-41874772D01*
X87565641Y-41874772D01*
G37*
G36*
X89361692Y-40078721D02*
X89534742Y-40114243D01*
X89697592Y-40182699D01*
X89844048Y-40281484D01*
X89968528Y-40406837D01*
X90066289Y-40553978D01*
X90133604Y-40717299D01*
X90167850Y-40890251D01*
X90167850Y-40890261D01*
X90167916Y-40890595D01*
X90165099Y-41092370D01*
X90165022Y-41092709D01*
X90165022Y-41092715D01*
X90125964Y-41264634D01*
X90054110Y-41426020D01*
X89952281Y-41570373D01*
X89824347Y-41692202D01*
X89675195Y-41786856D01*
X89510492Y-41850741D01*
X89336522Y-41881416D01*
X89159905Y-41877717D01*
X88987363Y-41839781D01*
X88825485Y-41769059D01*
X88680425Y-41668238D01*
X88557706Y-41541159D01*
X88462013Y-41392673D01*
X88396981Y-41228421D01*
X88365090Y-41054662D01*
X88367557Y-40878024D01*
X88404285Y-40705232D01*
X88473879Y-40542858D01*
X88573683Y-40397097D01*
X88699901Y-40273495D01*
X88847720Y-40176765D01*
X89011513Y-40110588D01*
X89185037Y-40077487D01*
X89361692Y-40078721D01*
X89361692Y-40078721D01*
G37*
G36*
X94540537Y-39548731D02*
X94751855Y-39592109D01*
X94950717Y-39675703D01*
X95129559Y-39796333D01*
X95281568Y-39949407D01*
X95400942Y-40129081D01*
X95483148Y-40328524D01*
X95524981Y-40539796D01*
X95524981Y-40539805D01*
X95525047Y-40540139D01*
X95521606Y-40786534D01*
X95521530Y-40786868D01*
X95521530Y-40786880D01*
X95473817Y-40996893D01*
X95386074Y-41193965D01*
X95261726Y-41370240D01*
X95105502Y-41519010D01*
X94923367Y-41634596D01*
X94722243Y-41712608D01*
X94509802Y-41750066D01*
X94294128Y-41745549D01*
X94083434Y-41699225D01*
X93885756Y-41612861D01*
X93708618Y-41489747D01*
X93558763Y-41334567D01*
X93441907Y-41153244D01*
X93362495Y-40952671D01*
X93323552Y-40740488D01*
X93326565Y-40524789D01*
X93371414Y-40313786D01*
X93456398Y-40115506D01*
X93578273Y-39937512D01*
X93732401Y-39786577D01*
X93912908Y-39668457D01*
X94112921Y-39587646D01*
X94324818Y-39547225D01*
X94540537Y-39548731D01*
X94540537Y-39548731D01*
G37*
G36*
X107790537Y-39548731D02*
X108001855Y-39592109D01*
X108200717Y-39675703D01*
X108379559Y-39796333D01*
X108531568Y-39949407D01*
X108650942Y-40129081D01*
X108733148Y-40328524D01*
X108774981Y-40539796D01*
X108774981Y-40539805D01*
X108775047Y-40540139D01*
X108771606Y-40786534D01*
X108771530Y-40786868D01*
X108771530Y-40786880D01*
X108723817Y-40996893D01*
X108636074Y-41193965D01*
X108511726Y-41370240D01*
X108355502Y-41519010D01*
X108173367Y-41634596D01*
X107972243Y-41712608D01*
X107759802Y-41750066D01*
X107544128Y-41745549D01*
X107333434Y-41699225D01*
X107135756Y-41612861D01*
X106958618Y-41489747D01*
X106808763Y-41334567D01*
X106691907Y-41153244D01*
X106612495Y-40952671D01*
X106573552Y-40740488D01*
X106576565Y-40524789D01*
X106621414Y-40313786D01*
X106706398Y-40115506D01*
X106828273Y-39937512D01*
X106982401Y-39786577D01*
X107162908Y-39668457D01*
X107362921Y-39587646D01*
X107574818Y-39547225D01*
X107790537Y-39548731D01*
X107790537Y-39548731D01*
G37*
G36*
X105250537Y-39548731D02*
X105461855Y-39592109D01*
X105660717Y-39675703D01*
X105839559Y-39796333D01*
X105991568Y-39949407D01*
X106110942Y-40129081D01*
X106193148Y-40328524D01*
X106234981Y-40539796D01*
X106234981Y-40539805D01*
X106235047Y-40540139D01*
X106231606Y-40786534D01*
X106231530Y-40786868D01*
X106231530Y-40786880D01*
X106183817Y-40996893D01*
X106096074Y-41193965D01*
X105971726Y-41370240D01*
X105815502Y-41519010D01*
X105633367Y-41634596D01*
X105432243Y-41712608D01*
X105219802Y-41750066D01*
X105004128Y-41745549D01*
X104793434Y-41699225D01*
X104595756Y-41612861D01*
X104418618Y-41489747D01*
X104268763Y-41334567D01*
X104151907Y-41153244D01*
X104072495Y-40952671D01*
X104033552Y-40740488D01*
X104036565Y-40524789D01*
X104081414Y-40313786D01*
X104166398Y-40115506D01*
X104288273Y-39937512D01*
X104442401Y-39786577D01*
X104622908Y-39668457D01*
X104822921Y-39587646D01*
X105034818Y-39547225D01*
X105250537Y-39548731D01*
X105250537Y-39548731D01*
G37*
G36*
X97080537Y-39548731D02*
X97291855Y-39592109D01*
X97490717Y-39675703D01*
X97669559Y-39796333D01*
X97821568Y-39949407D01*
X97940942Y-40129081D01*
X98023148Y-40328524D01*
X98064981Y-40539796D01*
X98064981Y-40539805D01*
X98065047Y-40540139D01*
X98061606Y-40786534D01*
X98061530Y-40786868D01*
X98061530Y-40786880D01*
X98013817Y-40996893D01*
X97926074Y-41193965D01*
X97801726Y-41370240D01*
X97645502Y-41519010D01*
X97463367Y-41634596D01*
X97262243Y-41712608D01*
X97049802Y-41750066D01*
X96834128Y-41745549D01*
X96623434Y-41699225D01*
X96425756Y-41612861D01*
X96248618Y-41489747D01*
X96098763Y-41334567D01*
X95981907Y-41153244D01*
X95902495Y-40952671D01*
X95863552Y-40740488D01*
X95866565Y-40524789D01*
X95911414Y-40313786D01*
X95996398Y-40115506D01*
X96118273Y-39937512D01*
X96272401Y-39786577D01*
X96452908Y-39668457D01*
X96652921Y-39587646D01*
X96864818Y-39547225D01*
X97080537Y-39548731D01*
X97080537Y-39548731D01*
G37*
M02*
