M48
INCH,TZ
T1C0.012
T2C0.024
T3C0.026
T4C0.028
T5C0.039
T6C0.047
T7C0.061
T8C0.071
T9C0.087
T10C0.110
T11C0.134
%
G90
G05
T1
X29900Y-41900
X31500Y-40000
X31900Y-42400
X31934Y-43400
X32800Y-34400
X33200Y-42200
X33200Y-43200
X33250Y-45260
X34100Y-27300
X34900Y-25900
X34934Y-28044
X35200Y-43650
X35350Y-45653
X35507Y-28044
X35600Y-42400
X35961Y-28044
X36400Y-26300
X36434Y-28044
X36850Y-45800
X37084Y-22500
X37250Y-28693
X37700Y-43800
X38034Y-24694
X38300Y-46600
X38400Y-45300
X38434Y-26851
X38850Y-34800
X38950Y-33050
X38950Y-33950
X38950Y-38250
X39050Y-22400
X39284Y-24744
X39600Y-34550
X39634Y-24394
X39700Y-32750
X39950Y-39800
X39950Y-40500
X40050Y-38400
X40234Y-24394
X40550Y-44900
X40646Y-29394
X40650Y-28500
X40650Y-30300
X40650Y-31200
X40950Y-23400
X41000Y-22400
X41000Y-39850
X41050Y-32300
X41350Y-34500
X41700Y-24450
X41800Y-28950
X42100Y-26100
X43050Y-27060
X43100Y-24450
X43650Y-36700
X43834Y-20944
X44200Y-28200
X44250Y-41450
X44700Y-43800
X44750Y-26050
X44800Y-30150
X45134Y-42244
X45300Y-28750
X45450Y-38800
X45600Y-40350
X45900Y-41450
X45984Y-30917
X46000Y-44900
X46084Y-32744
X46200Y-43600
X46234Y-29344
X46700Y-40150
X46900Y-41700
X46950Y-24000
X47000Y-44900
X47750Y-38350
X47900Y-24000
X48000Y-44900
X48584Y-42244
X48900Y-24000
X49000Y-44900
X49850Y-24000
X50000Y-44900
X50750Y-21500
X50900Y-24000
X51000Y-44900
X51850Y-24000
X52000Y-44900
X52900Y-24000
X53900Y-24000
X54850Y-24000
X54900Y-22500
X55384Y-21744
X55584Y-28294
X55700Y-26500
X55755Y-29015
X56000Y-25900
X56200Y-44400
X56517Y-27361
X56550Y-25300
X56700Y-43100
X56750Y-26300
X57074Y-30354
X57084Y-29015
X57134Y-29684
X57300Y-25450
X57300Y-34000
X57300Y-35300
X57384Y-20644
X57600Y-46500
X57784Y-30244
X58000Y-28450
X58000Y-44300
X58334Y-23544
X58384Y-21694
X58384Y-22544
X58400Y-43100
X58700Y-25250
X58834Y-27544
X58900Y-29900
X59084Y-31044
X59100Y-33600
X59100Y-35300
X59100Y-36500
X59100Y-37500
X59100Y-38500
X59284Y-24571
X59300Y-28500
X59500Y-39500
X59634Y-31544
X59684Y-23044
X59900Y-27100
X59950Y-25250
X60100Y-46500
X60334Y-23094
X60500Y-24700
X61034Y-20971
X61034Y-27494
X61134Y-23094
X61450Y-25250
X61534Y-24244
X61700Y-28100
X61700Y-43600
X61734Y-40294
X61934Y-21094
X61934Y-23094
X62100Y-24700
X62284Y-38894
X62384Y-24044
X62400Y-28700
X62400Y-32600
X62500Y-27100
X62600Y-29700
X62600Y-35900
X62600Y-37100
X62700Y-25250
X62734Y-21044
X62900Y-42800
X63000Y-28000
X63000Y-40800
X63200Y-24100
X63200Y-33400
X63200Y-46600
X63434Y-23044
X63500Y-28900
X64000Y-29600
X64100Y-28300
X64200Y-23800
X64400Y-31400
X64600Y-22200
X64700Y-23100
X64700Y-36500
X64700Y-40000
X64700Y-43400
X64800Y-30100
X64900Y-28900
X65000Y-33000
X65200Y-24100
X65500Y-22400
X65700Y-28300
X65700Y-29600
X66000Y-23400
X66500Y-29100
X66700Y-21900
X66700Y-22900
X66700Y-24100
X66900Y-28300
X67000Y-26100
T2
X30384Y-28094
X30934Y-34094
X30934Y-35444
X32684Y-40494
X32784Y-19994
X33434Y-39794
X33834Y-20894
X33984Y-30494
X34284Y-42494
X34284Y-46394
X34650Y-35550
X34700Y-18700
X34784Y-23444
X35384Y-34444
X35934Y-30394
X36150Y-35900
X36400Y-37950
X36650Y-40800
X36750Y-32500
X36750Y-38750
X37150Y-37200
X37350Y-41950
X37400Y-35850
X38200Y-31200
X38200Y-32000
X38534Y-27894
X38600Y-40150
X38700Y-41150
X40350Y-36200
X40350Y-37100
X40450Y-33800
X41100Y-36650
X41250Y-42850
X41300Y-41300
X41500Y-43850
X41684Y-46194
X42284Y-42944
X43884Y-32744
X43884Y-44794
X44334Y-34369
X44434Y-20394
X44650Y-38300
X44650Y-40550
X44684Y-16944
X46034Y-34369
X46850Y-27362
X47634Y-40794
X47684Y-18894
X50400Y-33700
X50450Y-38600
X50650Y-28600
X50784Y-19244
X51434Y-19944
X51650Y-32100
X52500Y-29750
X53666Y-40944
X53850Y-36150
X54550Y-41800
X54750Y-38600
X55534Y-19194
X55750Y-40950
X56334Y-19844
X56784Y-40218
X57250Y-39050
X57484Y-32094
X57984Y-32644
X66134Y-42494
X66184Y-31494
X66184Y-34994
X66184Y-38894
T5
X30754Y-29794
X30754Y-32944
X33023Y-18255
X33601Y-22666
X33601Y-23650
X33601Y-24438
X33601Y-25422
X33730Y-17548
X34437Y-16841
X35145Y-16133
X38024Y-21432
X38524Y-20432
X39024Y-21432
X39524Y-20432
X40024Y-21432
X40524Y-20432
X41024Y-21432
X41524Y-20432
X44400Y-23300
X44500Y-45700
X45400Y-23300
X45500Y-45700
X46400Y-23300
X46500Y-45700
X47400Y-23300
X47500Y-45700
X48400Y-23300
X48500Y-45700
X49400Y-23300
X49483Y-29763
X49483Y-37637
X49500Y-45700
X50400Y-23300
X50500Y-45700
X51400Y-23300
X51500Y-45700
X51650Y-33700
X52400Y-23300
X52500Y-45700
X53400Y-23300
X53500Y-45700
X53833Y-29763
X53833Y-37637
X54400Y-23300
X54500Y-45700
X55400Y-23300
X55500Y-45700
X56400Y-23300
X57400Y-23300
X59184Y-18944
X59184Y-19944
X60184Y-18944
X60184Y-19944
X60284Y-27994
X60284Y-28994
X60284Y-29994
X60284Y-30994
X60284Y-31994
X60284Y-32994
X60284Y-33994
X60284Y-34994
X60284Y-35994
X60284Y-36994
X60284Y-37994
X60284Y-38994
X60284Y-39994
X60284Y-40994
X60284Y-41994
X60284Y-42994
X61184Y-18944
X61184Y-19944
X62184Y-18944
X62184Y-19944
X63184Y-18944
X63184Y-19944
T6
X37175Y-16003
X38175Y-16003
X41392Y-16003
X42392Y-16003
T7
X64100Y-25100
X64100Y-27100
X65100Y-26100
X66100Y-25100
X66100Y-27100
T8
X36722Y-18976
X42821Y-18976
T9
X32534Y-21654
X32534Y-26434
T10
X30709Y-16535
X30709Y-45669
X65748Y-16535
X65748Y-45669
T11
X37533Y-17932
X42033Y-17932
T2
X30841Y-36936G85X30841Y-37724
G05
X31707Y-39082G85X32494Y-39082
G05
X33400Y-36936G85X33400Y-37724
G05
T3
X31113Y-40889G85X30955Y-40889
G05
X31113Y-42799G85X30955Y-42799
G05
T4
X30097Y-40230G85X29546Y-40230
G05
X30097Y-43458G85X29546Y-43458
G05
T0
M30
